/* XPM */
static char *_9f014357c904aaaac6f60dbc33828c6mzoHRNKBl4YBAipa[] = {
/* columns rows colors chars-per-pixel */
"60 54 192 2 ",
"   c None",
".  c black",
"X  c #161211",
"o  c #351618",
"O  c #271613",
"+  c #3D3E3D",
"@  c #3B3331",
"#  c #372624",
"$  c #4F1914",
"%  c #6C251F",
"&  c #75261F",
"*  c #4C2021",
"=  c #482728",
"-  c #542324",
";  c #5B2425",
":  c #5D2528",
">  c #572E2E",
",  c #5C2829",
"<  c #572E26",
"1  c #4F3125",
"2  c #4B3B2B",
"3  c #47332D",
"4  c #493933",
"5  c #513330",
"6  c #503A27",
"7  c #632421",
"8  c #67292C",
"9  c #6D2A2D",
"0  c #642928",
"q  c #7B2A25",
"w  c #702B2F",
"e  c #742B22",
"r  c #69302F",
"t  c #65302F",
"y  c #7A342C",
"u  c #773824",
"i  c #6D2E32",
"p  c #742E32",
"a  c #782F34",
"s  c #623C3C",
"d  c #6E3737",
"f  c #773837",
"g  c #7F3439",
"h  c #7E3C3A",
"j  c #783136",
"k  c #3D453C",
"l  c #3E503E",
"z  c #4D412C",
"x  c #55462A",
"c  c #434D38",
"v  c #4A4737",
"b  c #55483C",
"n  c #42543C",
"m  c #41583E",
"M  c #575033",
"N  c #7F4F2F",
"B  c #67453E",
"V  c #754438",
"C  c #7F5632",
"Z  c #6A4C32",
"A  c #4D6A3A",
"S  c #526736",
"D  c #537A3B",
"F  c #577235",
"G  c #746D34",
"H  c #354B47",
"J  c #3B5644",
"K  c #33524C",
"L  c #365E4C",
"P  c #3C5A46",
"I  c #2F5753",
"U  c #305B52",
"Y  c #39674F",
"T  c #3B6C4E",
"R  c #35624E",
"E  c #3D744E",
"W  c #3B7D4F",
"Q  c #37744F",
"!  c #346352",
"~  c #366B51",
"^  c #386F50",
"/  c #377150",
"(  c #387450",
")  c #3A7850",
"_  c gray25",
"`  c #574643",
"'  c #5D5148",
"]  c #6E4A4B",
"[  c #7A4C49",
"{  c #675653",
"}  c #795758",
"|  c #795858",
" . c #42764C",
".. c #447C4B",
"X. c #487846",
"o. c #547145",
"O. c #6F6F6F",
"+. c gray50",
"@. c #8C2515",
"#. c #83281E",
"$. c #8B291D",
"%. c #842517",
"&. c #912B1D",
"*. c #9D2C1D",
"=. c #972817",
"-. c #A42D1B",
";. c #AD2F1C",
":. c #B3301D",
">. c #BA311C",
",. c #812C22",
"<. c #9B2D20",
"1. c #84362A",
"2. c #9A3425",
"3. c #933527",
"4. c #82353A",
"5. c #893C3C",
"6. c #993C33",
"7. c #BE3E2A",
"8. c #AA3B23",
"9. c #85403E",
"0. c #8E423C",
"q. c #8C483E",
"w. c #91433A",
"e. c #A74639",
"r. c #8C3B41",
"t. c #913E44",
"y. c #8D4442",
"u. c #894E49",
"i. c #934845",
"p. c #994A46",
"a. c #91554C",
"s. c #9C584D",
"d. c #8A5F59",
"f. c #865B59",
"g. c #9D5E55",
"h. c #A44E4A",
"j. c #A85350",
"k. c #B85B57",
"l. c #BF5F5B",
"z. c #B25855",
"x. c #A45248",
"c. c #96625A",
"v. c #A9675D",
"b. c #B86B5F",
"n. c #846566",
"m. c #8E6B66",
"M. c #926866",
"N. c #8F7374",
"B. c #877673",
"V. c #997776",
"C. c #A6726A",
"Z. c #C75746",
"A. c #CB6454",
"S. c #598C3D",
"D. c #56893E",
"F. c #5D933B",
"G. c #63AB3F",
"H. c #3D804E",
"J. c #4E8E47",
"K. c #42834C",
"L. c #498449",
"P. c #45884B",
"I. c #4A8D49",
"U. c #4D8647",
"Y. c #508B47",
"T. c #4F9347",
"R. c #4D9148",
"E. c #539445",
"W. c #569A44",
"Q. c #599F43",
"!. c #5CA242",
"~. c #62AA40",
"^. c #9A8282",
"/. c #968683",
"(. c #A58F8F",
"). c #A58382",
"_. c #AC908F",
"`. c #A58F90",
"'. c #A59090",
"]. c #B09D9E",
"[. c #BBABAC",
"{. c #B6A6A3",
"}. c gray75",
"|. c #C7B9BA",
" X c #D2C7C7",
".X c #D2C7C8",
"XX c #D9C9C7",
"oX c #DDD5D5",
"OX c #E9E3E3",
"+X c #F4F1F1",
"@X c white",
"#X c #FFFFFF",
/* pixels */
"                                                                                                                        ",
"        ~.G.G.      !.H.H.)                 ~.G.G.      !.)     ) W             ~.~.G.      !.) U                       ",
"      ~.P.H.K.T.~.   .U U Q.~.~.~.~.      G.P.H.K.E.W.W ) U H.!.~.!.~.W.W     ~.P.H.K.T.~.  ..U U Q.~.~.~.~.G.          ",
"      P.! ! ! E R.Q.) I W.I.P.P.P.K.( U W P.R R ! ( I.W.) U !.R.P.P.P.K.W W W P.! ! ! E I.Q.) I E.R.P.P.P.P.J.~.        ",
"        U I ! E J.E.~ Y.I.H.~ ! ! ! ! I ! ! U I R J S D Y J.I.H.~ P P L ! ! ! ! U I ! E I.W.! Y.I.H.~ ! ! ! ~ R.~.      ",
"        I ! ~ ~ W P.R ~.) ~ U ! U U U Y I I U k ,.-.;.*.&.u n v e &.*.$.5 L I I I ! ~ ~  .K.Y G.) ~ U ! ! I U ( E.      ",
"        ..P.~ I ! ....~.H.U E L.L. .( ~ I X._ @.>.>.>.>.>.>.-.>.>.>.>.>.>.,.H  . .L.~ U ~ W ..G.H.U T L.L. .^ U W       ",
"      G.!.Q...T E K.G.Q.( ~ T.!.!.Q.T.^ I Y.w.:.>.>.>.>.>.>.>.>.>.>.>.>.>.>.$.F Q.Q...T E K.G.Q.( ~ E.Q.Q.Q.Y. .        ",
"        E ) E.~.E.T Q.W I !.P.) ) ) K.W.! 5 ;.>.:.$.y M.).`.`.] f.y &.-.>.>.>.&.l E E.!.E.T Q.W I !.P.) ( ) K.!.        ",
"      W U I / T.~.Q.W W I !.P.! I I ! K.F.&.>.3._.OX`.@X@X@X@X`.#X#XoXN.M.5.-.>.#.K / T.G.Q.W W I !.P.! I I ! H.G.      ",
"        I I I ~ I.G.!.I G.K.U I ..~.W.! x >.x.OX@X@X(.@X@X@X@X`.#X#X#X`.@X@X X).e.u K ~ I.G.!.I ~.K.! I L.G.E.R G.      ",
"        Q.~ ~ ~ ~ I.Q.I ~.K.! U.T.K.J.S -.&.+X@X@X@X`.OX|.[.`.} `.].|.N.@X@X@X@X(.XX' ~ ~ I.!.I ~.H.! U.T.K.I.!.        ",
"      ~.I.E. .U ! P.Q.I G.K.! Y.U.~ P.Z >.8 @X@X+X`.> * - ; : : : ; - * > N..X@X`.@X Xk R P.!.I G.K.! Y.L.~ P.G.        ",
"      G.H.!. .I ~ P.Q.I I.~ L.J. .U J =.&.N.@X].> - 8 w 9 i 9 p w w w w 8 ; * } N.@X@X* R P.!.I I.~ L.R.E U ~ I.        ",
"      T./ I.L.T ! P.!.I ~ U E.I.! I 5 >.f.`.n.- 8 w w w 9 p w w 9 w w w i w 9 * * ].@X} k P.Q.I ~ U E.I.~ I ! W         ",
"      W U ( W.L.~ R.E.I ! U E.J.! H &.<.`.s ; w w w w w p a 4.4.g a w w w w p 9 : * | N.B I.T.I ! U E.J.~ U ! W         ",
"        ! ~ R...E E./ I W U J.P.! 4 >.7 > : w w w p 4.t.t.t.t.t.t.t.r.4.a p w w w : * * > D ~ I ) U J.H.! ! E           ",
"        ) ! ~ ! ! Q I ! W I ^ ! K e :.* : w w w a r.t.t.t.t.t.t.t.t.t.t.t.g w 9 w w ; * * 4 I ! W U / ! I U ! W         ",
"        ) ! I I ~ / R G.W U I I k ;.e - w w w 4.t.t.t.t.t.t.t.t.t.t.t.t.t.t.r.p w w 9 * * = R G.H.U U I ~ R.G.          ",
"        ~.~.~.L.I T !.W I I Q R 0 >.- 9 w w 4.t.t.t.t.t.t.t.t.t.5.t.t.t.t.t.t.r.p w w : * * F.W I U ( ! U ! P.G.        ",
"      ~.P.H.K.R.U.! W U I E.!.S.&.&.; p 9 4.t.t.t.t.t.t.o o w w o o t.t.t.t.t.t.r.p w w * * J U I E.!.~.!.!.E.R         ",
"      P.! ! ! ( I.J.( I W.I.P.M >.% 9 9 g t.t.t.t.t.t.: $ @.>.>.>.@.q g t.t.t.t.t.4.w w 7 * 4 I E.I.P.P.P.P.I.E.        ",
"          U ~ ( J.E.~ Y.I.H.~ V ;.- i p r.t.t.t.t.t.q ;.C.O.:.v.{ >.>.#.r.t.t.t.t.t.4.w 8 * 3 I.I.W ~ ! ! ! ( I.        ",
"          ! ~ ~  .L.R G.W ~ U V $.0 p r.t.t.t.t.t.q >.>.V.O >.+.# >.>.>.%.r.t.t.t.t.t.p w * < ~.) ~ U ! ! I U ~         ",
"          R.~ I ! ....~.W U E C 7 8 4.t.t.t.t.t.g -.>.>.-.;.>.s.=.>.>.>.>.q t.t.t.t.t.r.w ; 1 ~.H.U E K.L. .Y U         ",
"        !.!...T E K.G.!./ T Y.G - a t.t.t.t.t.t.q >.>.>.>.>.;.>.>.>.>.>.>.@.r.t.t.t.t.t.5.: z !./ T E.!.Q.Q.E.T         ",
"        ) ( E.~.E.T Q.W I !.P.c - r.t.t.t.t.t.r.<.>.>.>.>.q.}./.;.>.>.>.>.>.$ , j t.r.t.t.i 2 ) U Q.P.) ( ) P.!.        ",
"          I / T.G.Q.W W I !.P.l i t.t.t.t.d - h @.>.>.7.>.c.C.{.@.>.>.>.>.>.8 V > ; r.t.t.i c ) I !.P.! U U U K.G.      ",
"          U U ~ R.G.Q.U !.P.~ H i t.t.t.i h z.l.$.>.>.B.b.8.>.>.>.>.>.>.>.>.y.l.A.i., i t.8 S U !.P.Y I ..!.E.K.G.      ",
"        ~.T ~ ~ T R.Q.I G.H.! X.i t.t.i y.l.l.l.2.>.>.c.4 ` v.a.7.>.>.>.>.;.y.l.k.l.l.r., ; D I ~.K.U ..J.P.I.!.P.      ",
"        I.E.E U ~ P.Q.I G.K.U Y.d t.i i.l.l.l.l.5.>.>.j.f.@ O X v.>.>.>.>.$.l.l.l.l.l.l.y.* S.I G.K.! I.I./ P.!.W       ",
"        ) Q. .U ! P.Q.I G.E ..I.] i i.A.l.l.l.A.z.@.8.4 a.` f.` s.>.>.>.:.0.l.l.l.l.l.l.l.* !.I T.( ..J.E U E R.)       ",
"        ~ J.U.Y ! P.!.I W.U E.J.v 9.A.l.l.l.l.l.l.p.*.a.m.` [ ` c.7.>.>.6.l.l.l.l.l.l.l.j.2 Q.I ~ U E.I.~ I ! ) /       ",
"        I ) W.L.! P.Q.I / U E.I.l k.l.l.l.l.l.l.l.l.h.$.Z.a.m.{ . A.*.1.l.l.l.l.l.l.l.l.f M E.I ! U E.J.~ U ! / I       ",
"          ) E...~ P.W.I U U W.I.J h.l.l.l.l.l.l.l.l.l.j.0.2.@.3.g.0.p.A.l.l.l.l.l.l.l.y.* A Q I W U E.P.! ! ( U         ",
"          I I ~ I.!.) U ) ) !. .K f l.l.l.l.l.l.l.l.l.l.l.l.l.l.l.l.l.l.l.l.l.l.l.k.5.* * ^ I I ) U ( ! I I ! )         ",
"        ) ! I I ! ( ! ~.H.U U I ^ - y.j.l.l.k.A.l.l.l.l.l.l.l.l.l.l.l.l.z.p.y.f [ V.]. Xb E R G.) U I I ~ I.~.          ",
"        !.!.Q...U  .W.K.U U / ! U y ] n.| d r d f f 9.5.9.9.9.h f r - * s ^..X'.OX@X@X'.v E W.H.U I ( ! U ~ I.~.        ",
"      ~.R.P.P.J...Y P.U I I.Q.E.E.G 1.OX@X@X`.+X X|.n.].`.`.`.| ].[.oX`.@X@X@XoX[.@XOX& o.! P.U I Y.Q.W.E.W.E.Y         ",
"      I.~ ! ~ W R.L.( I Y.I.I.I.J.K.8.u.+X@X(.@X@X@X`.@X@X@X@X`.#X#X#X`.@X@X@X+X^.+X[ N T.L.W I I.I.I.I.J.J.T.Y.        ",
"          I ! ( I.W.~ L.T.K.~ ~ ~ ~ B ;.[ OX'.@X@X@X`.@X@X@X@X(.@X@X@X(.@X@X@X@X^.] &.o.I.E.~ L.T.H./ ~ ~ ~ E E.        ",
"          ! ~ ~ ..I.R ~.) ( U ! U U ! 2.:.V ^.@X@X@X`.@X@X@X@X(.@X@X@X(.@X@X@X Xs #.2.T ..I.Y G.W / U ! U I U ) Q.      ",
"          I.T I ! )  .~.) U Y .. .Y E v ;.>.$.V.oX@X`.@X@X@X@X(.@X@X@X(.@X Xn.; *.>.v I ! W  .G.W U T ..W Y Y U )       ",
"        !.!...! ~ P.~.~.) ~ T.!.!.~.W.L : >.>.>.&.u.} |.oX+X@X(.@XOX|.n.} % $.>.>.1...! Y P.G.!.( ! E.!.!.~.W.R         ",
"        ) ) Q.~.Y.Y ~.W U !.P.W W W P.!.+ % ;.>.>.>.;.$.e ; * * * ; % $.*.>.>.:.e E W.~.Y.T !.W I !.P.W H.) P.~.        ",
"          I / T.G.Q.W W I !.P.! I I R H.~.c - *.>.>.>.>.>.>.>.>.>.>.>.>.>.>.*.< K I / T.~.Q.W W I !.P.! U U ! H.~.      ",
"          U U ( J.~.Q.U Q.P.! U ..!.J.R ~.I + * & ;.>.>.>.>.>.>.>.>.>.>.;.& z K I I U ~ R.~.Q.U !.P.! U ..!.T.K.~.      ",
"        ~.Y ! ~ T R.Q.I G.K.! ..J.P.I.E.^ I Y.P 3 * 7 #.*.;.>.>.:.-.%.% 2 F T I J.T ~ ~ T R.!.I G.H.! ..J.P.R.!.P.      ",
"        R.T.E U ! P.!.U ~.H.! I.U.~ P.Q.I Y.J.Y. .I v 2 1 * * * = z v P P.Q.I Y.I.T.E U ! P.Q.I ~.P.U Y.I.~ P.!.H.      ",
"        ) !. .U ! P.!.U R.( ..J. .U ) I.I ~.K.!. .I ! P.Q.I T.~  .J.E U W I.I G.H.!. .I ~ P.Q.I T.~ ..J. .U ( L.)       ",
"        ~ R.L.T ! P.Q.I ~ U E.I.~ I ! ) I W.( R.L.Y ! P.Q.I ~ U W.I.~ U U ~ I W.( J.U.Y ! P.!.I ~ U W.J.~ I I U )       ",
"        U ( E.L.! ..E.I ! U E.J.~ U ! ~ I / U ~ E.L.~ J.Y.I U I E.I.!     I I E U ~ E.L.! K.!.I U I E.U.! I I           ",
"          ( E...I ! ( U ) U Y.P.! ! / I I I I I L... .E.I I   U J. .        I I I I Y...I Y E.I   I I. .I I             ",
"          I U           I   I I     U         I I     I         I                   I       I       I                   "
};
