/* XPM */
static char *f9550e1cea4b41a1e3b3b7dd65475ab51HvjFLLjWmOZUExs[] = {
/* columns rows colors chars-per-pixel */
"60 54 172 2 ",
"   c None",
".  c #3C3D3C",
"X  c #6C251F",
"o  c #75261F",
"O  c #4C2021",
"+  c #482728",
"@  c #542325",
"#  c #5B2425",
"$  c #5D2628",
"%  c #572E2E",
"&  c #5C2829",
"*  c #572E26",
"=  c #4F3125",
"-  c #4B3B2B",
";  c #47332D",
":  c #503A27",
">  c #4F3633",
",  c #433C33",
"<  c #513330",
"1  c #632320",
"2  c #652A2C",
"3  c #6D2A2E",
"4  c #642928",
"5  c #742B22",
"6  c #702B2F",
"7  c #792E25",
"8  c #69302F",
"9  c #65302F",
"0  c #7A342C",
"q  c #773824",
"w  c #6D2E32",
"e  c #742E32",
"r  c #782F34",
"t  c #6A3131",
"y  c #623C3C",
"u  c #6D3A3A",
"i  c #763236",
"p  c #7B3236",
"a  c #773837",
"s  c #7E3338",
"d  c #7E3C3A",
"f  c #3D453C",
"g  c #3E503E",
"h  c #4D412C",
"j  c #524329",
"k  c #584A2B",
"l  c #4D4535",
"z  c #464A36",
"x  c #434D38",
"c  c #4C483C",
"v  c #55483C",
"b  c #42543C",
"n  c #41583E",
"m  c #575033",
"M  c #6D4627",
"N  c #7F4F2F",
"B  c #67453E",
"V  c #734337",
"C  c #774539",
"Z  c #66523D",
"A  c #7F5632",
"S  c #4D6A3A",
"D  c #526736",
"F  c #577235",
"G  c #537A3B",
"H  c #746530",
"J  c #747538",
"K  c #354E49",
"L  c #374543",
"P  c #3B5644",
"I  c #3D5843",
"U  c #33524C",
"Y  c #365E4C",
"T  c #3B5D49",
"R  c #2F5753",
"E  c #305B52",
"W  c #39674F",
"Q  c #3B6C4E",
"!  c #35624E",
"~  c #3D744E",
"^  c #3B7D4F",
"/  c #37744F",
"(  c #346352",
")  c #366B51",
"_  c #386F50",
"`  c #377150",
"'  c #387450",
"]  c #3A7850",
"[  c #5D5148",
"{  c #6E4A4B",
"}  c #7A4B49",
"|  c #795758",
" . c #795858",
".. c #516A46",
"X. c #42764C",
"o. c #447C4B",
"O. c #487846",
"+. c #577744",
"@. c #83281E",
"#. c #8A291E",
"$. c #912B1D",
"%. c #9D2C1D",
"&. c #A52E1D",
"*. c #AC2F1D",
"=. c #B3301D",
"-. c #BA311C",
";. c #812C22",
":. c #853628",
">. c #993626",
",. c #82353A",
"<. c #853D3E",
"1. c #883A3F",
"2. c #AA3B23",
"3. c #85403E",
"4. c #8C423A",
"5. c #A74639",
"6. c #8C3B41",
"7. c #913E44",
"8. c #8D4442",
"9. c #894E49",
"0. c #944845",
"q. c #984947",
"w. c #835B5A",
"e. c #8D5B57",
"r. c #A24F4C",
"t. c #A3514B",
"y. c #A95350",
"u. c #B15754",
"i. c #B85B57",
"p. c #BF5F5B",
"a. c #B15854",
"s. c #846566",
"d. c #926866",
"f. c #8F7374",
"g. c #997776",
"h. c #598C3D",
"j. c #56893E",
"k. c #5D933B",
"l. c #63AB3F",
"z. c #3D804E",
"x. c #4D8647",
"c. c #4E8E47",
"v. c #42834C",
"b. c #498449",
"n. c #45884B",
"m. c #4A8D49",
"M. c #508B47",
"N. c #4F9347",
"B. c #4D9148",
"V. c #539445",
"C. c #569A44",
"Z. c #599F43",
"A. c #5CA242",
"S. c #62AA40",
"D. c #9A8282",
"F. c #A58F8F",
"G. c #A58382",
"H. c #AC908F",
"J. c #A58F90",
"K. c #A59090",
"L. c #B09D9E",
"P. c #BBABAC",
"I. c #C7B9BA",
"U. c #D2C7C7",
"Y. c #D2C7C8",
"T. c #D9C9C7",
"R. c #DDD5D5",
"E. c #E9E3E3",
"W. c #E9E3E3",
"Q. c #F4F1F1",
"!. c white",
"~. c #FFFFFF",
/* pixels */
"                                                                                                                        ",
"        S.l.l.      A.z.z.]                 S.l.l.      A.z.    z.]             S.S.S.      A.] E                       ",
"      S.n.z.v.N.S.  X.E E Z.S.S.S.S.      S.n.v.v.V.C.] ] E z.A.S.A.S.C.]     S.n.z.v.C.S.  ^ E E A.S.S.S.S.S.          ",
"      n.( ( ( ~ B.Z.] R C.m.n.n.n.v.' E ^ n.( E ( ' m.V.] E A.B.n.n.n.v.z.] z.n.) E ( ' c.Z.~ R V.c.n.n.n.n.B.S.        ",
"        E R ( ~ c.V.) M.m.z.) ( ( ( ( R ( ( E R Y g S G ! M.c.^ ) T P T ( ( ( ( E R ( ~ B.C.) c.B.] ) ( ( ( ) B.S.      ",
"        R ( ) ) ^ n.! S.] ) E ( E E E W R R R . 7 &.*.&.$.M b l 5 $.$.$.< Y E E R ( ( ) ~ n.( l.] ) E ( ( R E ) V.      ",
"        o.n.) R ( o.o.S.z.E ~ b.b.X.' ) R O...#.-.-.-.-.-.-.&.-.-.-.-.-.-.;.L X.X.n.Q R ( o.o.S.z.E X.b.v.X._ E ^       ",
"      l.A.Z.o.Q ~ v.l.Z.' ) N.A.A.Z.N._ R M.o -.-.-.-.-.-.-.-.-.-.-.-.-.-.-.#.F Z.Z.o.Q ~ v.l.A.' ) V.Z.Z.A.M.X.        ",
"        ~ ] V.S.V.Q Z.^ R A.n.] ] ' n.C.( > *.-.=.#.0 d.G.F.F.{ e.0 #.&.-.-.-.$.n ] V.S.V.) A.] R A.n.] ' ] n.A.        ",
"      ^ E R ` N.S.Z.^ ^ R A.n.( R R ( v.k.$.-.>.H.E.F.~.~.~.~.J.~.~.R.f.d.1.&.-.@.K ) B.S.A.z.] R A.n.( R R ( z.l.      ",
"        R R R ) m.l.A.R l.v.E R b.S.V.! M =.t.E.~.~.F.~.~.~.~.J.~.~.~.J.~.~.U.G.5.7 U ) m.l.A.R S.v.( R b.l.V.! l.      ",
"        Z.) ) ) ) m.Z.R S.v.( x.B.v.B.D %.#.Q.~.~.~.F.E.I.P.J.| J.L.I.f.~.~.~.~.J.T.[ ) ) m.Z.R S.v.E x.B.v.m.A.        ",
"      S.m.V.X.E ( n.Z.R l.v.( M.x.) b.M -.2 ~.~.Q.F.% O @ $ $ $ $ # @ O % f.U.~.J.~.U.f ( n.A.R S.v.( M.b.) n.l.        ",
"      l.z.A.X.R ) n.Z.R m.) b.c.' E P $.$.f.~.L.% @ 3 3 3 3 6 6 6 6 e 3 2 # O | f.~.~.+ ! n.A.E B.) b.B.~ E ) m.        ",
"      N.` m.b.Q ( n.A.R ) E V.m.) R < -.w.J.s.@ 2 6 6 6 3 e 6 6 6 6 6 6 6 6 3 O O L.~.| z v.A.R ) E V.m.) R E ^         ",
"      ^ E ' C.b.) B.V.R ( E V.c.) K ;.%.J.y # 3 6 6 3 e e p s ,.p p 6 6 6 6 6 6 $ O | f.B B.M.R ( E V.B.) E ) ^         ",
"        ( ) c.o.X.V.) R ^ E c.v.( < -.1 % $ 6 6 6 e ,.6.7.7.7.7.7.7.6.1.e w 6 6 6 $ O O % G ) E ] E c.v.( ( ~           ",
"        ] ( ) ( ( ' E ( ^ E ' ( U 5 *.@ $ 6 6 6 p 6.7.7.7.7.7.7.7.7.7.7.7.,.6 6 6 6 # O O , R E z.E ) ( E E ( ^         ",
"        ] ( R R ( ' ! l.^ E R R f *.5 @ 6 6 6 ,.7.7.7.7.7.7.7.7.7.7.7.7.7.7.6.e 6 6 3 O O + ! l.z.E E R ) m.l.          ",
"        S.l.S.b.R Q A.^ R R / ( 4 -.# 3 6 6 ,.7.7.7.7.7.7.7.7.7.7.7.7.7.7.7.7.6.e 6 6 $ O O k.^ R E ' ( E ( n.l.        ",
"      S.n.v.v.B.x.( ^ E E V.A.j.#.$.# e 3 ,.7.7.7.7.7.6.7.6.7.7.7.7.7.7.7.7.7.7.6.e 6 3 O O n E R V.A.A.A.A.V.!         ",
"      n.( ( E ] m.c.' R C.m.n.m -.X 3 6 s 7.7.7.7.7.7.6.e 6.7.7.6.6.w 6.7.7.7.7.7.,.6 6 $ O , R V.m.n.n.n.n.m.V.        ",
"          R ( ] c.V.) M.m.z.) V *.@ 3 e 6.7.7.7.7.7.6.@ O w 7.7.7.& O @ 7.7.7.7.7.7.,.e 2 O ; x.B.z.) ( ( ( ) m.        ",
"          ) ) ) ] b.! S.z.) E V $.4 6 6.7.7.7.7.7.7.r O O 2 7.7.6.O O O i 7.7.7.7.7.7.e 6 O * l.] ) E ( ( E E )         ",
"          N.) E ( o.o.l.^ R ~ A # 3 ,.7.7.7.7.7.7.7.@ O O @ 6.8.2 O O O @ 6.7.7.7.7.7.6.e @ = S.z.E ~ b.v.X.Q R         ",
"        A.A.o.Q ~ v.l.A.` Q V.H @ r 7.7.7.7.7.6.6.6.O O O O 6.6.@ O O O O t 7.7.7.7.7.7.1.$ j A.' ) V.A.Z.Z.M.X.        ",
"        ^ ] B.S.V.Q Z.^ R A.n.x @ 6.7.7.7.7.6.6.6.i O O O O O O O O O O O O O $ i 7.7.7.7.w - ] E Z.n.] ] ~ v.A.        ",
"          R ) V.l.Z.^ ^ R A.n.g w 7.7.7.7.i $ d 6.9 O O O O O O O O O O O 9 d d $ $ 6.7.6.w z ] R A.n.( R R ( v.l.      ",
"          R E ) B.l.Z.E A.n.W U w 7.7.7.w d i.p.p.p.u.a O O O O O O & 3.a.p.p.p.p.0.$ t 6.9 D E A.n.( E o.A.V.v.l.      ",
"        S.Q ( ) Q B.Z.R l.z.( O.w 7.7.w 8.p.p.p.p.p.p.p.q.t O 9 8.r.p.p.p.p.p.p.p.p.p.<.$ & G R l.v.( o.B.n.n.A.n.      ",
"        m.B.X.( ) n.Z.R l.v.E M.V 7.e 0.p.p.p.p.p.p.p.p.p.p.p.p.p.p.p.p.p.p.p.p.p.p.p.p.8.O h.R l.v.E M.c.) n.A.^       ",
"        ] Z.X.R ( n.Z.R l.~ o.c.B w 0.p.p.p.p.p.p.p.p.p.p.p.p.p.p.p.p.p.p.p.p.p.p.p.p.p.p.O A.E V.) o.c.~ E ^ N.^       ",
"        ) B.x.W ( n.Z.R C.E V.B.l 3.p.p.p.p.p.p.p.p.p.p.p.p.p.p.p.p.p.p.p.p.p.p.p.p.p.p.y.: A.R ` R C.m.) R ( ] )       ",
"        E ' C.b.( n.A.R ` E V.m.b i.p.p.p.p.p.p.p.p.p.p.p.p.p.p.p.p.p.p.p.p.p.p.p.p.p.p.a m N.R ( E V.m.) E ) ) R       ",
"          ' V.o.) n.C.R E E C.m.I r.p.p.p.p.p.p.p.p.p.p.p.p.p.p.p.p.p.p.p.p.p.p.p.p.p.8.O S / R ] E V.n.( ( ' E         ",
"          R R ) B.A.] R ] ] A.X.U a p.p.p.p.p.p.p.p.p.p.p.p.p.p.p.p.p.p.p.p.p.p.p.i.<.O O Q R R ^ R ` ( R R ( ^         ",
"        ] ( R R ( ' ! S.z.E E R ) @ 6.y.p.p.p.p.p.p.p.p.p.p.p.p.p.p.p.p.y.q.8.a } g.L.U.v / ! l.] E E R ) m.l.          ",
"        S.A.A.o.E ' Z.v.E E ` ( E 0 { s.w.u t t a a 3.3.3.3.3.d a 8 & O y D.Y.K.W.~.~.F.c ~ C.v.E R ` ( R ) m.l.        ",
"      S.m.n.n.B.o.W v.E R c.Z.V.V.J :.E.~.~.J.Q.U.I.s.L.J.J.J. .L.P.R.J.~.~.~.R.P.~.E.o +.( v.( R M.Z.C.V.C.V.Q         ",
"      m.) ( ( ^ c.x.' R c.m.m.m.c.v.2.9.Q.~.J.~.~.~.J.~.~.~.~.J.~.~.~.J.~.~.~.Q.D.Q.} N c.n.~ R M.m.m.m.m.c.B.c.        ",
"          R ( ' m.C.) b.N.o.` ) ) ) Z *.} E.F.~.~.~.J.~.~.~.~.J.~.~.~.F.~.~.~.~.D.{ $...c.C.Q b.N.z.) ) ( ) ~ V.        ",
"          ) ) ) o.c.( S.] ' ( E ( R R >.=.C D.~.~.~.J.~.~.~.~.J.~.~.~.F.~.~.~.U.y @.>.) o.m.( l.] ~ ( ( E R E ~ Z.      ",
"          n.Q R ( ] X.S.] E W o.X.Q ~ l *.-.#.g.R.~.J.~.~.~.~.J.~.~.~.F.~.U.s.# %.-.c R ( ^ X.l.^ E W v.^ Q W E ]       ",
"        S.A.o.( ) n.S.S.] ) B.A.S.A.V.Y 1 =.-.-.#.9.| I.R.Q.~.J.~.W.I.s.| X #.-.-.:.o.! Q n.l.A.] ( V.A.A.S.C.(         ",
"        ^ ^ C.S.M.Q S.^ E A.n.] ^ ^ n.A.. # *.-.-.-.*.$.5 1 O O O # X #.&.-.-.=.5 ~ C.S.c.Q A.^ R A.n.^ z.] n.S.        ",
"          R ) V.S.Z.] ^ R A.n.( R R ( z.l.z # %.-.-.-.-.-.-.-.-.=.-.-.-.-.-.%.* U E ` V.l.Z.^ ^ R A.n.( E E ( z.S.      ",
"          R E ) B.l.C.E A.n.) E o.A.c.W l.E . O o &.-.-.-.-.-.-.-.-.-.-.&.o j U R R R ) B.l.C.E A.n.( E o.A.V.z.S.      ",
"        S.) ( ) ~ B.A.R l.v.E o.c.n.x.V.Q R c.T ; O X @.%.*.-.-.=.&.#.X - F Q R M.) ) ) Q B.A.R S.z.( o.c.n.B.A.n.      ",
"        m.B.X.E ( n.A.R S.z.( M.m.) n.A.E M.m.M.X.U x - = O O O + h z I n.A.R c.m.N.~ E ( n.A.R S.v.( M.b.` n.A.z.      ",
"        ] A.X.E ) n.A.R N.` X.c.X.E ' m.R S.z.A.X.R ( n.Z.R B._ o.c.~ E ^ x.R l.z.A.X.R ) n.Z.R V.) o.c.X.E ' b.]       ",
"        ) B.b.) ( n.A.R ` R V.m.) R ( ] R C.' B.b.W ( n.Z.R _ E V.m.) R E ) R C.' c.x.W ( n.A.R ) E V.m.) R R E ]       ",
"        E ' V.b.( o.V.R ( E V.c.) E ( ) R ' E ) V.b.) m.M.R R R V.x.)     R R ' E ) V.b.( v.A.R E R C.b.( R R           ",
"          ' V.o.R ( ' R ] E M.n.) ( ` R R R R R x.o.X.V.R R   R c.X.        R R R R M.o.R W V.R   R c.X.R R             ",
"          R E           R   R R     R         R R     R         R                   R       R       R                   "
};
