/* XPM */
static char *_318747da2cc4825c2640dbd9eb9d977WlvyZRj80x0hs4g2[] = {
/* columns rows colors chars-per-pixel */
"60 54 156 2 ",
"   c None",
".  c #3D3D3B",
"X  c #46191F",
"o  c #481C1F",
"O  c #531E1F",
"+  c #5E211F",
"@  c #66231F",
"#  c #6B241F",
"$  c #75261F",
"%  c #7C271F",
"&  c #491C20",
"*  c #521E20",
"=  c #462425",
"-  c #4C2121",
";  c #4C2F23",
":  c #442D2C",
">  c #532120",
",  c #5A2221",
"<  c #562E2D",
"1  c #5E2F2E",
"2  c #46322D",
"3  c #483129",
"4  c #4B392C",
"5  c #51322F",
"6  c #533A2F",
"7  c #593B2B",
"8  c #563324",
"9  c #413333",
"0  c #4F3733",
"q  c #423D35",
"w  c #4F3933",
"e  c #652420",
"r  c #682420",
"t  c #6B2E25",
"y  c #653E2A",
"u  c #633424",
"i  c #723F25",
"p  c #733124",
"a  c #623C3D",
"s  c #3D433C",
"d  c #3E513F",
"f  c #5D422B",
"g  c #524D2C",
"h  c #5C4C2E",
"j  c #5A5B2F",
"k  c #54542C",
"l  c #484035",
"z  c #494933",
"x  c #404439",
"c  c #424A39",
"v  c #444935",
"b  c #524032",
"n  c #4A5636",
"m  c #4F5C33",
"M  c #42543C",
"N  c #415A3E",
"B  c #505730",
"V  c #5C5630",
"C  c #7D403B",
"Z  c #556231",
"A  c #536D37",
"S  c #4E753E",
"D  c #567A37",
"F  c #5A7634",
"G  c #374543",
"H  c #3A4440",
"J  c #364946",
"K  c #344D49",
"L  c #3D5743",
"P  c #3E5C44",
"I  c #33524C",
"U  c #375F4B",
"Y  c #395B4A",
"T  c #2F5753",
"R  c #315350",
"E  c #305B52",
"W  c #3C6747",
"Q  c #34604F",
"!  c #3A674E",
"~  c #3B6C4E",
"^  c #37744F",
"/  c #3C744E",
"(  c #3B7D4F",
")  c #346352",
"_  c #366B51",
"`  c #386F50",
"'  c #377150",
"]  c #387450",
"[  c #3A7850",
"{  c #405F40",
"}  c #6E4A4B",
"|  c #754B4A",
" . c #795758",
".. c #785859",
"X. c #447545",
"o. c #477D46",
"O. c #4A7E46",
"+. c #42764C",
"@. c #447C4B",
"#. c #83281E",
"$. c #8A291E",
"%. c #912A1D",
"&. c #9E2D1D",
"*. c #A52E1D",
"=. c #AC2F1D",
"-. c #B3301C",
";. c #BA311C",
":. c #84352D",
">. c #8C423B",
",. c #894E4A",
"<. c #875A58",
"1. c #945C57",
"2. c #846566",
"3. c #8F7474",
"4. c #598B3B",
"5. c #5B933D",
"6. c #5D9D3F",
"7. c #63AB3F",
"8. c #3D804E",
"9. c #4D8445",
"0. c #4E8E47",
"q. c #42834C",
"w. c #498449",
"e. c #45884B",
"r. c #4A8D49",
"t. c #508B46",
"y. c #4F9347",
"u. c #4D9148",
"i. c #539445",
"p. c #569A44",
"a. c #599E43",
"s. c #5CA242",
"d. c #62AA40",
"f. c #61A940",
"g. c #64AB40",
"h. c #63AB40",
"j. c #9A8182",
"k. c #A18281",
"l. c #A68F8F",
"z. c #A58F90",
"x. c #A69090",
"c. c #AC9090",
"v. c #B09D9D",
"b. c #BBABAC",
"n. c #BBABAC",
"m. c #C7B9BA",
"M. c #C7B9BA",
"N. c #D2C7C7",
"B. c #D2C7C8",
"V. c #DDD5D5",
"C. c #E8E3E3",
"Z. c #E9E3E3",
"A. c #F4F1F1",
"S. c #F4F1F1",
"D. c white",
"F. c white",
/* pixels */
"                                                                                                                        ",
"        d.7.7.      s.8.8.[                 h.h.h.      d.[     [ [             h.h.h.      s.[ E                       ",
"      d.e.8.q.y.h.  @.E E p.d.d.d.d.      h.e.8.q.y.p.[ [ E 8.s.g.f.d.p.8.    h.e.8.q.y.h.  [ E E s.h.h.d.d.h.          ",
"      e.) ) ) / u.p.[ E p.r.e.e.e.q.] E [ e.) ) ) ] u.y.[ T s.u.q.r.q.q.[ 8.[ e.) ) ) [ u.s.[ R i.r.e.e.e.e.r.d.        ",
"        E T ) / 0.p.) t.r.8._ ) ) ) ) E ) ) E T ) ] r.p._ t.u.8._ ) ) ) ) ) ) ) T T ) [ r.i.) t.r.8._ ) ) ) ' r.h.      ",
"        T ) _ _ ( w.Q 7.[ _ T ) ) E E ) R E R ) _ _ +.e.) g.[ _ E ) ) T E _ T T T ) _ _ [ w.! g.[ _ E E ) T E ' y.      ",
"        @.e._ T ) ( @.d.8.E / w.q.+.+._ T +.+.e.~ T ) ( @.d.8.E +.@.q.+.+._ T +.@.w.` R _ @.@.g.8.E +.w.w.+.` E 8.      ",
"      7.s.a.@.~ / q.7.s.] _ i.s.a.a.t.~ T p.a.s.@.~ / w.7.a.] _ i.a.a.a.i.` T p.p.s.@.` ] q.g.a.[ _ i.a.a.a.t.+.        ",
"        [ [ y.d.i.` a.[ T a.e.[ [ ] q.p.) E ] ] y.d.i.~ a.( T s.q.[ [ [ q.p.) E ' [ y.d.i.' s.8.T s.e.[ [ [ q.s.        ",
"      ( E T ' y.d.a.8.[ E s.e.) E R ) e.g.[ E T ' y.7.a.( ( T s.r.) T T ) q.g.+.E R ] u.g.s.[ [ T a.e.) T R ) 8.g.      ",
"        R T T _ r.g.s.E h.q.E T w.g.p.E 7.E T T T _ r.7.a.T 7.8.) T q.h.p.) g.T T T T _ r.h.a.R h.q.) R w.d.p.) g.      ",
"        a.! _ _ _ 0.a.K d.q.) 9.0.q.r.p.) R p.! _ _ _ r.s.E 7.q.E 9.y.q.r.p.E E p._ _ _ _ r.s.T h.q.) w.u.@.r.a.        ",
"      h.r.i.@.E ) @.g s f.8.) t.w._ e.a.R p.r.i.+.E ) e.a.T h.q.) t.w._ e.a.E i.r.i.+.E _ e.s.E h.8.) t.w._ e.d.        ",
"      7.8.s.+.R ) M g < j d O.i.] E ] w.R 7.q.a.+.E ) e.s.R r._ w.0.+.T ` e.T g.q.a.+.R ) e.a.R u._ w.0.] E ] r.        ",
"      y.' e.r.` ) M F - #.&.$.f q G I +.I t.W O.r.~ ) e.s.T _ T p.r.` R ) [ T y.` r.e.` ) e.a.T _ E i.r._ R ) 8.        ",
"      ( E ] p.O.~ u.m - - , =.;.;.*.&.%.%.%.%.%.% 7 L r.i.T ) E i.r._ E ) _ T ` R ] p.w._ r.i.T ) E p.r._ E ) [         ",
"        ) _ 0.@.+.y.c > & - - #.;.;.;.;.;.;.;.;.;.;.%.V ~ E ( E 0.q.) ) ^ ) T T E _ u.@.+.y.' T ( E 0.q.) ) ]           ",
"        [ ) _ ) ) ^ 0 @ - - ..3.* -.;.;.;.;.;.;.;.;.;.=.< I ( E _ ) E E ) ^ T T [ ) _ ) ) ] T ) ( E ] ) E ) ) [         ",
"        [ ) T T _ ' 5 $ - a A.D.C.| $ =.;.;.;.;.;.;.;.;.-.u d d s . s n A G I T [ ) T T _ ' ! 7.[ E T T _ r.d.          ",
"        h.h.d.w.T ~ f $.> n.D.D.D.S.& , %.;.;.;.;.;.;.;.;.-.*.=.;.;.;.;.=.&.% 0 5.h.h.w.R ~ s.( T E ] ) T ) e.d.        ",
"      h.e.8.q.i.9.) 7 *.- C.D.D.D.A.A.b.a , &.;.;.;.;.;.;.;.;.;.;.;.;.;.;.;.;.;.#.n q.y.r.E ( E T p.f.a.s.s.t.!         ",
"      e.) ) E [ e.i.4 ;.| m.D.D.D.D.D.D.D.b.a $ =.;.;.;.;.;.;.;.;.;.;.;.;.;.;.;.;.=.6 W e.i.] T p.e.e.w.e.e.r.p.        ",
"          T ) ] 0.p.2 ;.>.A.N.C.m.D.D.D.D.D.C... .$ =.;.;.;.;.;.;.;.;.;.;.;.;.;.;.;.=.p 9.p.! t.r.8._ ) ) ) ' u.        ",
"          _ _ _ +.q.: =.$.B.D. .} D.D.D.D.D.D.D.D.Z.3.@ $.;.;.;.;.;.;.;.;.;.;.;.;.;.;.;.%.h Y 7.[ _ E ) x R E _         ",
"          u._ T ) ( 4 *.-.c.D.v.z.n.D.D.D.D.D.D.D.D.D.C.a , $ &.;.;.;.;.;.;.;.;.;.;.;.;.;.;.%.i f w 0 w q - W E         ",
"        s.s.@.~ / w.k %.;.:.D.D.D.D.b.C.D.A.D.D.D.D.D.D.C.D.N.3., $ &.;.;.;.;.;.;.;.;.;.;.;.;.;.;.-.$.r - A S ~         ",
"        [ ] y.d.i.~ Z % ;.&.v.D.D.D.D.l.3.3.D.D.D.D.D.D.D.D.D.D.C.a < | 1.:.$.*.*.=.=.-.=.*.%.% r - - - L W X.f.        ",
"          T ' y.7.a.N @ ;.;.,.D.D.D.D.A.- & 3.C.D.D.D.A.D.D.D.D.D.B.A.D.D.D.A.3.< } 3.2. .- - - - - - s T T ) @.h.      ",
"          R E ] u.g.4., -.;.&.N.D.D.D.A.C.A.b. .3.C.z.D.D.D.D.D.D.D.D.D.D.D.D.B.C.D.D.D.D.a - - - - . E @.s.i.8.h.      ",
"        g.` ) _ ` u.a.& &.;.;.C D.D.D.D.D.D.D.D.C.a - j.C.D.D.D.m.D.D.D.D.D.D.D.D.D.D.D.D.} - & - v E @.0.e.r.s.e.      ",
"        e.i.+.E _ e.s.: % ;.;.=.k.D.D.D.D.D.D.D.D.A.< } a ..j.n.a B.D.D.D.D.D.A.D.D.D.D.C.& - , 8 q.) t.e._ e.s.[       ",
"        [ s.+.T ) e.a.q o -.;.;.$.x.A.A.D.D.D.D.D.A.m.D.D.A.n.a & a 3.v.m.B.b.} m.m.b.z.} - , #.S ` @.0.+.E ( y.8.      ",
"        _ r.w.! ) e.s.J & #.;.;.;.% & B.D.D.D.D.D.V.D.D.D.D.D.V.D.D.D.A.C.N.m.x.m.N.n.j.- % *.0 _ E i.r._ E ) [ _       ",
"        T [ p.w._ e.s.T : & -.;.;.;.$ a n.D.D.D.D.D.D.D.D.D.D.D.D.D.D.D.D.D.D.D.D.D.N.C *.;.t I ) T p.r._ R ) ' T       ",
"          [ i.q._ e.p.T . & % ;.;.;.;.#.& 2.V.D.D.D.D.D.D.D.D.D.D.D.D.D.D.D.C.A.N.<.%.;.;.#.d T 8.E y.e._ ) ' E         ",
"          T R _ r.a.[ T / = & *.;.;.;.;.*., - ..l.D.D.D.D.D.D.A.D.D.D.D.C.m.a 1.&.;.;.;.#.. T T [ E [ ) T T ) [         ",
"        [ ) R T ) / ) 7.( s X o -.;.;.;.;.;.%.r -  .z.b.B.m.j.< ..} a 1 @ $.-.;.;.;.;.#.: / Q 7.[ E E R _ r.d.          ",
"        s.s.s.@.E +.p.8.E T : o * =.;.;.;.;.;.;.-.&.$.#.$ $ $ $ #.%.*.-.;.;.;.;.;.-.$ = I / p.q.E R ' ) E _ r.d.        ",
"      h.y.e.e.0.O.) q.) E t.5.; X & %.;.;.;.;.;.;.;.;.;.;.;.;.;.;.;.;.;.;.;.;.;.&.* 3 9.w.Q q.) E t.a.p.p.p.i.!         ",
"      u._ ) _ [ u.w.[ R t.e.r.O.= X & $ =.;.;.;.;.;.;.;.;.;.;.;.;.;.;.;.;.;.&.@ o 9 U ( u.e./ T t.e.r.r.0.e.i.t.        ",
"          T ) ] r.p.` O.u.8.' _ U = & X X @ %.=.;.;.;.;.;.;.;.;.;.;.;.=.$.e & & . R ) ' r.a.` O.y.8.' _ _ _ ] i.        ",
"          _ _ _ q.e.! 7.[ ] E ) ) R . X X X X X O # #.$.%.%.$.$.% $ * & & & : I T ) _ ` @.e.) g.[ ] ) E E T E ] p.      ",
"          e.~ T ) [ @.7.[ E ! @.@.~ ~ ! 9 & X X o X X X & X & & X X X - v L T ~ ` q._ R ) [ +.g.[ E _ q.@.] ! E 8.      ",
"        f.s.@.) _ w.7.s.[ ! y.s.s.s.p.) T 5.D B 4 - & X X & & - 3 B D 6.p.E T s.f.s.+.! _ e.d.f.] ! i.s.s.s.p.!         ",
"        [ [ p.h.0.~ s.[ T s.e.[ [ [ e.s.T T [ [ p.7.t.W p./ R a.e.( ( ( e.s.E T [ [ p.g.t.` f.[ T s.e.[ 8.[ e.h.        ",
"          E ] y.g.s.8.[ T s.e._ T T ) q.h.8.E R ~ y.g.a.8.[ E s.e.) T T E q.g.( E T ' y.g.a.( [ T s.e.) T T ) q.h.      ",
"          R E _ u.h.p.E s.e.) E O.s.t.! h.E R E E ] u.7.p.E s.e.) E @.s.t.! d.E E T E ` 0.g.p.E s.e.) T @.s.y.q.h.      ",
"        g._ ) _ / u.s.T d.q.) @.0.e.e.p.` T r.! ) _ ~ u.s.T h.q.) @.0.e.e.p.~ T 0.! ) _ ` i.a.E h.q.) @.u.e.r.s.e.      ",
"        r.i./ E ) e.s.T d.8.) r.9.` e.s.E t.r.t.+.E _ e.s.T g.q.E t.r.` e.a.R t.r.i.] E _ e.a.T g.q.E t.r.` r.s.8.      ",
"        [ s.+.T _ e.s.T y.' @.0.+.E ] r.T d.8.s.+.R ) e.s.T y.` @.0./ E / 0.T h.8.s.+.R ) e.s.T y.` @.r.+.E ` q.[       ",
"        _ 0.w._ ) e.s.T _ T p.r._ T ) [ T p.] u.w._ ) e.s.T _ T p.r._ E E _ T p.' u.w.! ) e.s.T ` T i.r._ T E E [       ",
"        T ] p.w.) @.i.T ) T p.r._ T ) _ T ] E _ i.O._ r.t.T T T p.w.)     T T ] E ` i.w.) q.s.T T T p.r.) T R           ",
"          [ i.@.T ) ] T [ E t.e._ ) ' T T T T T w.@.+.i.T T   T 0.+.        T T T T r.@.T ! p.T   T t.+.T T             ",
"          T T           E   T T     T         T T     E         T                   R       R       T                   "
};
