/* XPM */
static char *e21f5a68d91a4564dc3a87bf80a095f8VdLr2TRCaJJbnkhd[] = {
/* columns rows colors chars-per-pixel */
"60 54 162 2 ",
"   c None",
".  c #3D3B3A",
"X  c #46191F",
"o  c #4F1D1F",
"O  c #561F1F",
"+  c #66231F",
"@  c #6A241F",
"#  c #75261F",
"$  c #7C271F",
"%  c #491C20",
"&  c #541F20",
"*  c #462525",
"=  c #4C2021",
"-  c #472826",
";  c #4B2B24",
":  c #462B2B",
">  c #542121",
",  c #592120",
"<  c #502D26",
"1  c #572E2F",
"2  c #5E2F2E",
"3  c #5D2C26",
"4  c #45332D",
"5  c #4C3E2C",
"6  c #4C3527",
"7  c #573B26",
"8  c #5C3029",
"9  c #533A2C",
"0  c #53322D",
"q  c #413332",
"w  c #483533",
"e  c #433F36",
"r  c #493A33",
"t  c #503430",
"y  c #513B32",
"u  c #662420",
"i  c #682420",
"p  c #6D2922",
"a  c #772B24",
"s  c #6C3024",
"d  c #62332A",
"f  c #6B312E",
"g  c #623C3D",
"h  c #703E3C",
"j  c #3E433B",
"k  c #4E412B",
"l  c #524328",
"z  c #5D432B",
"x  c #5A5B2F",
"c  c #58512D",
"v  c #464133",
"b  c #484C33",
"n  c #434D39",
"m  c #494A3A",
"M  c #514233",
"N  c #4F5230",
"B  c #44573A",
"V  c #445C3D",
"C  c #62552C",
"Z  c #58652F",
"A  c #4C6037",
"S  c #46603C",
"D  c #47683F",
"F  c #4C6D3D",
"G  c #576530",
"H  c #566B32",
"J  c #5A7734",
"K  c #394241",
"L  c #364B46",
"P  c #344D4A",
"I  c #3B5444",
"U  c #34504C",
"Y  c #355B4F",
"T  c #3B5A45",
"R  c #2F5753",
"E  c #325550",
"W  c #305B52",
"Q  c #3E6345",
"!  c #39674F",
"~  c #37694D",
"^  c #3B6C4E",
"/  c #36644E",
"(  c #37744F",
")  c #3C744E",
"_  c #3B7D4F",
"`  c #346352",
"'  c #366B51",
"]  c #386F50",
"[  c #377150",
"{  c #387450",
"}  c #3A7850",
"|  c #6E4A4B",
" . c #785758",
".. c #7A5859",
"X. c #406041",
"o. c #457646",
"O. c #457A47",
"+. c #4C7C42",
"@. c #42764C",
"#. c #447C4B",
"$. c #83291E",
"%. c #8A291E",
"&. c #922B1D",
"*. c #9D2C1D",
"=. c #A52E1D",
"-. c #AC2F1D",
";. c #B3301C",
":. c #BA311C",
">. c #812C21",
",. c #843120",
"<. c #87352C",
"1. c #8B423A",
"2. c #84413A",
"3. c #894E49",
"4. c #8D5A58",
"5. c #945B57",
"6. c #846566",
"7. c #8F7374",
"8. c #9C7674",
"9. c #5D8837",
"0. c #5A8338",
"q. c #5B8F3D",
"w. c #5B973F",
"e. c #63AB3F",
"r. c #3D804E",
"t. c #4D8546",
"y. c #4E8E47",
"u. c #42834C",
"i. c #498449",
"p. c #45884B",
"a. c #4A8D49",
"s. c #538540",
"d. c #508B46",
"f. c #4F9347",
"g. c #4D9148",
"h. c #539445",
"j. c #569A44",
"k. c #599E43",
"l. c #5CA242",
"z. c #62AA40",
"x. c #63AB40",
"c. c #61A940",
"v. c #64AB40",
"b. c #63AC40",
"n. c #9A8182",
"m. c #A58F8F",
"M. c #AC908F",
"N. c #A58F90",
"B. c #B09D9E",
"V. c #BCABAC",
"C. c #BBABAC",
"Z. c #C7B9BA",
"A. c #D2C7C7",
"S. c #D2C7C8",
"D. c #DDD5D5",
"F. c #DDD5D5",
"G. c #E9E3E3",
"H. c #E9E3E3",
"J. c #F4F1F1",
"K. c #F4F1F1",
"L. c white",
"P. c white",
/* pixels */
"                                                                                                                        ",
"        z.e.e.      l.} r.r.                b.b.b.      b.}     } }             b.b.b.      l.} W                       ",
"      z.p.r.u.f.v.  _ W W j.z.z.z.z.      b.p.u.u.f.j.} } W r.l.c.l.b.j.r.    b.p.r.u.f.b.  #.W W l.z.z.z.z.b.          ",
"      p.` ` ` ) f.j.} E h.f.p.p.p.u.{ W } p.` ` W } g.f.} R l.g.p.p.p.u.r.} } p.` ` ` } g.j.} E h.a.p.p.p.p.a.v.        ",
"        W R ` ) a.j.' d.g.} ' ` ` ` ` E ` ` R R ` _ a.j.' d.a.r.' ` ` ` ` ` ` ` W R ` } a.h.' d.f.} ' ` ` ` ' f.b.      ",
"        R ` ' ' ) p./ e.} ' W ` W W W ! E W R ` ' ' ) i.` b.} ' W ` ` R W ' W E R ` ' ' @.i.` b.} ] W ` ` R W ' f.      ",
"        #.p.' R ` #.#.z.r.W ) i.i.@.{ ' R @.@.p.^ R ` r.#.v.r.W @.#.i.#.{ ] E @.@.i.' E ' } i.z.} W @.#.u.#.] W _       ",
"      e.l.k.#.^ ) u.e.k.} ' f.l.l.k.f.] R h.k.l.#.^ ) #.v.k.} ' f.k.k.k.d.] W j.k.k.#.] } #.v.k.} ' h.k.k.k.d.@.        ",
"        } } h.z.h.^ l.} R l.p.} } } u.j.` W { } f.z.h.^ k._ R l.p.} } } u.j.` W [ } h.c.h.^ l.r.E l.p.} ) _ u.l.        ",
"      _ W R ' f.z.k._ _ W l.p.` E W W u.b.} W R ^ g.e.k._ _ R l.p.` W R ` u.b.} W W ' g.b.l.} } W l.p.` R R ` r.e.      ",
"        R R W ' a.z.l.W b.u.` E i.v.j.` b.W W E W ' a.e.k.W e.r.` E i.z.h.` b.E R R W ' a.b.k.E b.r.` R i.e.h.` e.      ",
"        k.! ' ' ' a.k.R b.r.W t.g.u.a.h.` E h.` ' ' ' a.k.W e.r.W i.f.u.a.h.` E h.! ' ' ' a.k.R b.#.W t.g.u.a.l.        ",
"      b.a.h.@.W ` p.k.E b.u.` d.i.' p.l.R j.a.f.@.W ` p.l.W e.u.` d.t.' p.k.R j.a.f.@.W ` p.l.E b.S j s.i.' p.e.        ",
"      e.r.l.@.R ' p.l.R a.' i.f.@.R ] p.R b.u.l.@.E ' p.k.E a.' i.d.) W ^ p.R e.u.l.@.W ` a.k.L x < l A ) W ' a.        ",
"      f.[ a.i.^ ` p.l.R ' W h.a.' R W } E f.{ i.a.] ` p.k.R ' E j.a.' E ` ^ U s.^ +.+.K e d %.&.$ = J B ' R W _         ",
"      _ W [ j.i.' g.g.R ` W h.a.' W ` ] E ' W } h.i.' a.f.W ` W h.a.T d a %.&.&.&.&.&.-.:.:.=.u = = G g.' W ' _         ",
"        W ' f.#.) h.' E } W a.u.` ` ' ` R R W ' f.@.} f.' E } W d.c =.:.:.:.:.:.:.:.:.:.:.$.% = = > x u.` ` _           ",
"        } ` ' ` ` { W ` r.W ' ` R ` ` [ R R } ` ' ' ` [ W ` _ W 8 -.:.:.:.:.:.:.:.:.:.*.f n.6.= = i M ` W W ` )         ",
"        r.` W R ` } ` v.} W R R ] a.h.R E W { I K . j n j J X.d ;.:.:.:.:.:.:.:.:.;.$ | G.P.K.g = $ t R ' a.e.          ",
"        z.b.z.i.E ] c.} W W { ` R ` p.l.U w >.*.-.:.:.:.;.-.=.;.:.:.:.:.:.:.:.:.%.> X F.P.P.P.m.= &.9 ` W ` p.e.        ",
"      z.p.r.u.f.t.` } W W h.l.c.l.i.W m >.;.:.:.:.:.:.:.:.:.:.:.:.:.:.:.:.:.*.i  .V.J.J.P.P.P.K.= =.z e.l.l.h.`         ",
"      p.` ` W ) i.f.} W h.g.p.p.p.@.1 =.:.:.:.:.:.:.:.:.:.:.:.:.:.:.:.:.=.i 1 V.P.P.P.P.P.P.P.C.h :.9 p.p.p.a.h.        ",
"          R ` ) a.h.! d.a.r.' ` T s :.:.:.:.:.:.:.:.:.:.:.:.:.:.:.:.*.#  .7.G.P.P.P.P.P.C.F.C.K.1.;.: ` ` ` [ g.        ",
"          ' ' ! S i.` z.} ' I w ,.:.:.:.:.:.:.:.:.:.:.:.:.:.:.;.*.i 7.S.P.P.P.P.P.P.P.P.....P.F.&.;.: ` ` R W '         ",
"          f.Q : r M y C 7 a %.;.:.:.:.:.:.:.:.:.:.:.:.:.:.*.$ 2 1 F.P.P.P.P.P.P.P.P.P.C.m.B.P.n.;.*.5 i.u.@.] E         ",
"        l.k.X.n ; @ &.-.:.:.:.:.:.:.:.:.:.:.:.:.:.;.*.$ > ..S.P.G.P.P.P.P.P.P.P.P.H.Z.P.P.P.P.1.:.&.N l.l.k.d.@.        ",
"        _ _ +.w.0.= = = i a *.=.-.;.-.-.=.&.%.<.3...1 g S.P.P.P.P.P.P.P.P.P.P.7.n.B.P.P.P.P.n.=.:.a b } } } u.l.        ",
"          R ^ h.e.H = = = = % = | 6.6...1 6.K.P.P.P.G.A.P.P.P.P.P.J.J.P.P.K.7.% % P.P.P.P.P.4.:.:.i X.` R R ` u.b.      ",
"          W E ' f.b.Z = % = = | P.P.P.P.H.C.P.P.P.P.P.P.P.P.P.P.P.P.n.F.m.6.C.J.H.P.P.P.P.C.%.:.:.& L W #.l.h.u.b.      ",
"        z.! ' ' ' g.l.q > = = g P.P.P.P.P.P.P.P.P.P.P.P.C.P.P.P.J.n.= | S.P.P.P.P.P.P.P.P.2.:.:.*.% ` #.a.p.a.l.p.      ",
"        i.f.) W ` a.k.E 7 > = = J.P.P.P.P.K.P.P.P.P.P.F.1 C.n...g | 1 J.P.P.P.P.P.P.P.P.M.-.:.:.a 4 W d.a.[ p.l.}       ",
"        r.l.@.W ` p.k.W 9.%., % | N.C.S.Z...Z.S.C.B.7.1 % g A.K.P.P.A.J.P.P.P.P.P.J.G.m.%.:.:.-.o e #.a.) W } f.}       ",
"        ' g.i.! ` p.l.R h.M -.a % n.C.A.A.n.C.F.G.G.P.P.P.G.P.P.P.P.K.G.P.P.P.P.P.A.= $.:.:.:.&.% P h.a.` W ` } '       ",
"        W { j.i.' p.l.R { E p :.=.h G.P.P.P.P.P.P.P.P.P.P.P.P.P.P.P.P.K.P.P.P.P.A.g # :.:.:.-.O - W j.a.' W ' ' W       ",
"          { f.#.' p.j.R W W F >.:.:.&.8.F.G.G.P.P.P.P.P.P.P.P.P.P.P.P.P.P.P.A. .= $.:.:.:.:.$ X X.W f.p.` ` [ W         ",
"          W E ' a.k.} R r.) k.N $.:.:.:.&.5.g Z.F.P.P.P.P.G.P.P.P.P.P.P.B. .= , *.:.:.:.:.*.X * } W [ ` E W ` }         ",
"        } ` W E ` { ` b.} W W R : >.:.:.:.:.-.%.+ % g  .| 1 n.A.Z.C.n. .% @ *.:.:.:.:.:.-.O X J } W W W ' a.v.          ",
"        l.l.l.#.W @.j.u.W W [ ` E - a ;.:.:.:.:.:.:.*.*.$.a # # # $ $.=.;.:.:.:.:.:.:.-., X 9 r.W E ' ` W ' a.v.        ",
"      b.f.p.p.f.#.` u.W W d.k.h.j.+.- & &.:.:.:.:.:.:.:.:.:.:.:.:.:.:.:.:.:.:.:.:.:.%.o X * o.` E d.k.j.j.j.h.'         ",
"      a.' ` ` } f.t.} R d.a.a.a.i.i.` : % # =.:.:.:.:.:.:.:.:.:.:.:.:.:.:.:.:.:.*.+ X X ; t.( R d.a.a.a.a.a.d.d.        ",
"          E ` } a.j.^ #.h.r.' ' ` ' ` W v % % + &.-.:.:.:.:.:.:.:.:.:.:.:.-.&.u X X % - i.j.~ i.f.r.[ ' ' ' @.f.        ",
"          ' ` ' #.a.` e._ [ W ` W E W ` R R q % X X O @ $.>.&.&.%.%.$ # & X X X X X v ~ #.a.` z.} { ` W W R W { j.      ",
"          p.' W ` } @.v._ W ' #.@.] { ' R ] ^ o.5 % X X X X % % X X X X X X % = k F ( E ' ) @.e.} W ' u.@.{ ] W r.      ",
"        c.l.@.` ' p.e.c.} ` h.l.c.c.j.` R k.c.l.#.W I b 9 % % % X X % = 6 e j j.l.l.#.` ' p.e.l.{ ! h.l.l.l.j.!         ",
"        } } k.b.a.^ l._ W l.p.} } r.p.l.W W } } j.z.y.^ l.r.R h.O.) _ _ u.l.W W } } k.b.d.^ c.} R l.p.} r.} p.b.        ",
"          W [ f.e.l.r._ E l.p.` E E ` r.z.} W R { h.e.k.r.} R l.p.` E W ` u.z.} W W ' f.e.k._ _ E k.p.` R R ` r.b.      ",
"          E W ' f.e.j.W l.p.' W #.l.d.! e.W R R W ' a.e.j.R l.p.` W #.l.d.! z.W W R E ' f.z.k.W l.p.` W #.l.f.u.b.      ",
"        b.! ' ' ^ a.k.W b.u.W #.a.p.a.j.' E d.! ' ' ^ f.l.R b.u.` #.y.p.a.h.^ W d.` ' ' ' f.k.R b.u.` #.g.p.a.l.p.      ",
"        a.f.) W ` p.l.R b.r.` d.i.[ p.k.E d.a.d.@.W ` p.l.R v.u.W d.a.' p.l.E d.p.f.@.W ` p.k.R v.u.` d.i.[ p.l.r.      ",
"        } l.@.W ' p.l.R f.[ #.a.@.W } a.R v.u.l.@.R ` p.l.R f.[ #.y.@.W ) a.R z.u.l.@.R ` p.l.R f.] #.d.@.W [ i.}       ",
"        ' a.i.' ` p.l.R ' R j.a.' R ` } R j.{ g.i.! ` p.l.R [ R j.a.' W W ' R j.{ g.i.! ` p.l.R ' R j.a.' R R W }       ",
"        W { j.i.` #.f.R ` R j.a.' W ` ' R { R ' h.i.' a.d.R R R j.i.`     R W [ R ] h.i.` p.l.R R R j.p.` R R           ",
"          } f.#.R ` { R } W d.p.' ` { R R R R R i.#.@.h.R R   R a.@.        R R E R a.#.W ` h.E   R d.@.R R             ",
"          E W           W   E E     R         R R     R         E                   E       W       R                   "
};
