/* XPM */
static char *_ee25319f55845c8fc514ddf6b5a402e3eNOysVlmnmAEixY[] = {
/* columns rows colors chars-per-pixel */
"60 54 156 2 ",
"   c None",
".  c #3F2C2E",
"X  c #3D2F32",
"o  c #3C3233",
"O  c #3A3738",
"+  c #373F3F",
"@  c #393C3C",
"#  c #45181E",
"$  c #4C191E",
"%  c #541B1D",
"&  c #5B1D1E",
"*  c #621E1D",
"=  c #691F1D",
"-  c #69201D",
";  c #71211D",
":  c #7E241D",
">  c #441D21",
",  c #4B1D21",
"<  c #432225",
"1  c #4E2320",
"2  c #462823",
"3  c #482A22",
"4  c #412428",
"5  c #51272C",
"6  c #493326",
"7  c #4C3D26",
"8  c #483728",
"9  c #5C353A",
"0  c #3D4137",
"q  c #3F4837",
"w  c #3B443D",
"e  c #3C4B3C",
"r  c #3D533D",
"t  c #43412F",
"y  c #4E4628",
"u  c #4B4A2C",
"i  c #434734",
"p  c #414A36",
"a  c #465736",
"s  c #4D5D34",
"d  c #445A3B",
"f  c #485B39",
"g  c #54612E",
"h  c #4E6837",
"j  c #496339",
"k  c #506C38",
"l  c #4D753F",
"z  c #567535",
"x  c #587432",
"c  c #52773A",
"v  c #364543",
"b  c #374A44",
"n  c #394A42",
"m  c #334E4B",
"M  c #3A5343",
"N  c #375A47",
"B  c #3D5B43",
"V  c #34544B",
"C  c #355C4C",
"Z  c #3C5F48",
"A  c #2F5753",
"S  c #305350",
"D  c #305B52",
"F  c #3C6A46",
"G  c #36664E",
"H  c #39674F",
"J  c #3B6C4E",
"K  c #37744F",
"L  c #3C744E",
"P  c #3B7D4F",
"I  c #346352",
"U  c #366B51",
"Y  c #386F50",
"T  c #377150",
"R  c #387450",
"E  c #3A7950",
"W  c #684348",
"Q  c #735256",
"!  c #406044",
"~  c #426944",
"^  c #407147",
"/  c #497F47",
"(  c #41764C",
")  c #447C4B",
"_  c #86261C",
"`  c #8E271D",
"'  c #8E281C",
"]  c #95291D",
"[  c #9D2B1C",
"{  c #A42C1C",
"}  c #AB2E1C",
"|  c #B32F1C",
" . c #B3301C",
".. c #BA311C",
"X. c #8B6F72",
"o. c #598E3E",
"O. c #5A933D",
"+. c #5F993B",
"@. c #63AB3F",
"#. c #3D804E",
"$. c #4B8647",
"%. c #4E8E47",
"&. c #42834C",
"*. c #498449",
"=. c #45884B",
"-. c #4A8D49",
";. c #518540",
":. c #508B47",
">. c #4F9347",
",. c #4D9148",
"<. c #539145",
"1. c #509146",
"2. c #519246",
"3. c #529346",
"4. c #529345",
"5. c #509546",
"6. c #509646",
"7. c #529746",
"8. c #569644",
"9. c #549445",
"0. c #579942",
"q. c #569844",
"w. c #559A45",
"e. c #569C45",
"r. c #569A44",
"t. c #589B43",
"y. c #599F43",
"u. c #5B9F42",
"i. c #5B9F41",
"p. c #599D43",
"a. c #59A043",
"s. c #5CA141",
"d. c #5DA341",
"f. c #5EA341",
"g. c #5CA042",
"h. c #5CA242",
"j. c #5EA541",
"k. c #5EA642",
"l. c #5CA242",
"z. c #61A840",
"x. c #61A940",
"c. c #62AA40",
"v. c #63AB40",
"b. c #64AB40",
"n. c #63AC40",
"m. c #63AC40",
"M. c #967D80",
"N. c #A28C8F",
"B. c #AD999C",
"V. c #B9A8AA",
"C. c #C4B6B9",
"Z. c #D0C5C6",
"A. c #E7E2E3",
"S. c #E8E2E3",
"D. c #F3F1F1",
"F. c white",
/* pixels */
"                                                                                                                        ",
"        c.@.@.      k.E E #.                n.n.n.      k.E     E E             n.n.n.      k.P D                       ",
"      c.=.#.&.>.n.  ) D I t.c.c.c.c.      n.=.&.&.6.r.E E D #.k.c.k.c.r.#.    n.=.&.&.>.b.  ( D A u.c.c.c.c.@.          ",
"      =.I I I L ,.e.E S 7.-.=.=.=.&.R D E =.I D I R -.6.E D a.,.=.=.=.#.#.E E =.I I I K ,.e.E D 7.-.=.=.=.=.-.b.        ",
"        D A I L ,.r.Y :.-.#.U I I I I D I I D D I L -.t.U :.-.P U I I I I I U I D A I R -.r.I :.,.E U I I I Y -.n.      ",
"        A I U U E *.D b.E U A I D D D I S D S b N G a s M b.E Y D I D D D I A S A I U U ( =.H @.E U D I I D D Y >.      ",
"        ( =.U A I ) ) n.#.D ( *.*.( R Y v n n % , . & # # 3 p m Z ~ e w b H A ( ( $.U A I P ) @.#.D L *.*.( J D P       ",
"      @.d.y.) J R &.b.a.T U 6.a.a.p.k M > & , ` * # - # # # # % # # * ; - $ 4 x O.a.) J L &.@.u.R Y 3.y.y.y.9.J         ",
"        E E 6.z.1.Y p.E A g.=.E E r $ $ % ..' ..% ; $ # # $ # ; _ ; $ * [ ..[ ; 4 E 6.c.9.Y a.#.D u.=.E E E &.d.        ",
"      P D A T 6.b.p.#.) A a.=.I D + ; | : & % _ _ _ { $ = ` } ` { ....= : ......= v U ,.b.a.#.E A u.=.I A A I #.@.      ",
"        S S S U -.b.a.D c.&.I S *.x ; ..{ { { _ { { ; # - ..........- # { ` ] .._ O A U -.b.g.A n.&.I A *.c.7.G @.      ",
"        p.Y U U U -.p.A c.&.I $.,.p % : ............[ $ _ ............= _ : : ..{ > U U U -.g.A @.&.D $.,.) %.a.        ",
"      n.-.4.( D I =.g.S n.&.I :.$.C i % ............; # [ ............& ` _ _ ...., J D U =.g.A @.&.I :.$.U =.@.        ",
"      @.&.a.( A U =.p.A -.U *.,.L V > { ............{ # # & _ ........* ` ` - ....& B A I =.g.S -.U $.:.L D U -.        ",
"      >.T -.$.Y I =.g.A U A w.-.I @ = | ............] $ ; * % ........] = ` ; ....; f H I =.p.A U D 7.-.U A D P         ",
"      P D T w.*.Y -.1.D I D 8.-.U w # $ { ............$ - : _ ........* ` ` ; ....; x *.Y -.1.D I D 7.-.U D U P         ",
"        D R -.) ( >.J D P D :.=.I C < & _ ..........: & { ............* ] ] = ....: s ) ( 6.U S P D -.&.I I K           ",
"        P D Y I I T A I P D U D D v - ......{ { ....' $ { ............= ` [ * ....: p I I R D I P D Y I D D I P         ",
"        P I D A I R I @.P D D D U $.y * ....- _ ....' % ..............% { [ * ..| _ O S I R I n.P D D A U -.@.          ",
"        c.c.@.*.D J k.E A D R I D V < : { { % ......' # # % ..........% [ [ * ....: g *.D J k.E A D R I D I =.@.        ",
"      c.=.#.&.>.$.I ( D A 7.z.u.i.l > _ _ _ ........[ # % .........._ $ ..[ * ....; d ,.$.I ) D A 8.z.u.d.d.:.I         ",
"      =.I I D E -.-.E D r.-.=.=.-.F 4 % { .........._ % ..............& { ` = ....* n L -.-.E S 7.-.=.=.=.=.-.0.        ",
"          A U R -.7.I :.-.#.U I G M # ; _ ......] .._ % ..............$ { ` ; ....& V K -.7.H :.-.#.I I I I U -.        ",
"          U U U ( $.I n.E U D I I A @ % { ......% ..[ $ _ _ ..........; _ _ : ....> H U ( =.I @.P Y D I I D D U         ",
"          >.J A I ) ) n.P D L *.*.L ! # : ......' { ` $ # $ : : { ....% [ ; _ ..{ 6 U D U ) ) b.P D ( *.*.( J A         ",
"        a.y.( J L &.b.a.T J 3.y.y.0.o.# $ { { ..- & _ $ $ : : _ { ..` - ..* [ ..] u ( J R &.b.a.R J 7.a.p.p.3.J         ",
"        E E 4.c.3.J a.#.D d.=.E K K P 3 # _ _ ........% # ` ..........$ .., | ..= r 4.c.3.J a.E A y.=.K E R &.k.        ",
"          D T >.n.a.E E A a.=.I D D D L 7 _ ] ` _ : : $ # $ : : : _ - & _ = ..} # A U 3.@.y.#.E A d.=.I D A I &.n.      ",
"          A D U ,.@.t.D p.=.H D ) d.:.G +.X . o < # - _ : : : : _ : : ; $ { _ $ @ A A J ,.@.t.D d.=.H D ( d.4.&.n.      ",
"        n.J I U R ,.d.S b.&.I ) %.=.%.7.H A :.H U e $ { ............; % ; 1 O D $.J U U R ,.d.S b.&.D ) >.=.-.a.=.      ",
"        -.3.L I I =.u.A c.&.D :.%.U =.u.A %.-.:.( D V $ ..........& & : 6 o.A $.=.3.L D I =.d.A @.&.I :.-.T =.k.#.      ",
"        E a.( A I =.u.D b.R ) :.R D L %.D n.&.a.( A I # ........{ & _ < J -.D @.&.a.( A I =.y.A >.T ( -.L D L ,.E       ",
"        U ,.$.H I =.g.A r.D 7.-.I A I E A w.R ,.*.H V # .......... .1 S I E D w.T ,.*.H I =.a.D U D 7.-.U S I E U       ",
"        D R r.*.I =.a.A T D t.-.U D I U A R A R w./ $ _ ............% D I U A T D R w.*.U -.1.A I D 7.-.U D U U A       ",
"          R 9.) U =.r.A D D 8.-.U I R D D A D T 4.3 [ ..............% C T D A A D U >.) ( w.R S #.D 1.=.I I R D         ",
"          D D I ,.a.E A #.E p.( A A I E E D E I M $ & { ..} * ; | ..= v I E A A E I T U I T A D E D R I D A I E         ",
"        P I D D I R I c.E D D A U -.9.S A D E I + 9 C.$  .; N.X._ | = h 7.D S D R I A A U R I b.E D D A U -.@.          ",
"        k.d.d.( S L t.&.D D T I D U -.q.A S t.g.8 V.F.Q ] 5 F.D., ..: e %.8.S D e.z.g.) A R t.&.D D T I D U -.b.        ",
"      n.-.=.=.%.*.I &.I A :.p.r.8.$.I Y A 8.-.=.> D.F.B.& Q F.F.9 { _ i D H D 8.-.=.=.,.$.I &.D S :.y.8.9.t.3.Y         ",
"      -.U I I P ,.$.R A :.-.-.-.-.&.I D U -.U I # F.F.V.# X.F.F.Q [ : 0 I D Y -.U I I ( ,.*.E S :.-.-.-.-.-.3.:.        ",
"          A I R -.r.J *.>.P U U U U I D U U D A # F.F.V.# X.F.F.Q [ : 0 I D U I D S I R -.p.T *.w.#.U U U I L 4.        ",
"          U U U ) %.I b.P T D I D D D I A A S I < S.F.M.; W F.F.5 } _ O D I D D A I I Y ) *.I b.E R I I D A D L e.      ",
"          =.J D I E ( c.P D Y ( ( J Y U A H J &.i N.F.9 { $ S.Z.% ..: w J U A H Y &.Y D I E ( b.E D H &.E J Y D E       ",
"        k.k.( I U =.b.k.P I 3.k.k.z.8.I A y.z.k.f 5 X.; .._ 9 9 _ ..* z 8.I D u.z.g.( I Y =.b.z.R H 1.k.k.k.8.I         ",
"        E E e.@.:.H k.P D d.=.K E E -.d.A D P K j * _  .....] [ ....% F =.u.D A E E r.c.:.H z.E D g.=.E E E =.c.        ",
"          A T >.@.y.P P A u.=.I S D I #.@.P D A e ; ..............} > D I &.c.P D A T 1.z.p.E P S u.=.I A A I &.n.      ",
"          D D Y ,.@.t.D d.=.U D ) d.:.H @.D D D + ; ..............` y a.:.I @.D D A D Y ,.b.p.D d.=.I D &.g.6.&.n.      ",
"        b.H I U L ,.u.D @.&.D ) -.=.-.8.H A $.J w ; ..............- j =.%.7.J A :.H I Y Y ,.d.D b.&.I ) ,.=.,.a.=.      ",
"        -.3.L D I =.a.A n.&.I :.$.Y =.g.A :.-.:.f ; ............} # ) Y =.d.D :.-.3.R D U =.g.A b.&.I :.*.T =.k.#.      ",
"        P a.( D U =.g.A ,.T ) -.( D R -.A b.&.a.j ; ............[ 8 ( D L -.D c.&.h.( S I =.g.A >.Y ) :.( D R &.E       ",
"        R ,.$.H I =.g.A U A r.-.U A I E A e.R ,.*.I I =.g.A Y A 7.-.U D D U A 7.T -.*.U U =.u.A Y A q.-.U A A D E       ",
"        A R r.) I ) 6.A I A q.-.U A I T A R A U 3.*.U -.:.S A A 8.-.I     S S R A Y 8.*.I &.u.A A A q.=.I A A           ",
"          E 1.&.A I R A E D :.=.U I T A A A A A $.) ( 8.A A   A %.(         D A S A :.) D I 8.A   A :.( A S             ",
"          S S           D   S D     A         A A     A         S                   A       A       A                   "
};
