/* XPM */
static char *bc2c30f9bc034255aa111f1ed10caf17iZZVUAlrhzy1SgKQ[] = {
/* columns rows colors chars-per-pixel */
"60 83 44 1 ",
"  c None",
". c black",
"X c #0E0B02",
"o c #0F0C03",
"O c #1D1705",
"+ c #1E1806",
"@ c #2C2308",
"# c #2D2409",
"$ c #3B2F0B",
"% c #4A3B0E",
"& c #584610",
"* c #594711",
"= c #675213",
"- c #765E16",
"; c #765F17",
": c #846A19",
"> c #856A19",
", c #856B1A",
"< c #93751B",
"1 c #93761C",
"2 c #94761C",
"3 c #A2811E",
"4 c #A2821F",
"5 c #A3821F",
"6 c #B18D21",
"7 c #B18E22",
"8 c #BF9924",
"9 c #C09924",
"0 c #C09A25",
"q c #CEA527",
"w c #CFA628",
"e c #DDB12A",
"r c #DEB22B",
"t c #EBBC2C",
"y c #EBBD2D",
"u c #EBBD2E",
"i c #ECBC2C",
"p c #EDBC2C",
"a c #ECBC2D",
"s c #ECBD2D",
"d c #EDBD2D",
"f c #EEBD2D",
"g c #ECBE2D",
"h c #EDBE2E",
/* pixels */
"                                                            ",
"                                                            ",
"                                   h                        ",
"                                   h                        ",
"                                   t                        ",
"                                  hh                        ",
"                                  ht                        ",
"                                  th                        ",
"                                 tht                        ",
"                                 hth                        ",
"                                 tht                        ",
"                         h      hhth                        ",
"                         thh    hhth                        ",
"                         hhtth ththt                        ",
"                         hththththth                        ",
"                         thththththt                        ",
"                         hthththhtht                        ",
"                         thththtthth                        ",
"                         hthththhtht                        ",
"                         thththtthth                        ",
"                         hthhthththt                        ",
"                         thtthththth                        ",
"                         hhththththt                        ",
"                        thththththth                        ",
"                    hhhththththththththh                    ",
"                  thththththththththththth                  ",
"                hthththththththththththtthth                ",
"              hthhthththththththththththhthhhh              ",
"             hththththhththththththththththththt            ",
"           thththththtththththththththththththtth           ",
"          hhththththtththe9<<-:<69htthhthththtthth          ",
"         hhthththththe<*O.........X$:qththththhthhh         ",
"        hththththth6=X................$1hththtththth        ",
"       hhhthththtq$.....................O1ththhthtthh       ",
"      hhthhththt-X........................%qhhthhththt      ",
"     ththtththq$...........................O3thtththth      ",
"     hthththh8O..............................-hthththth     ",
"    hhhththt8X................................-hthththth    ",
"    hththttqX..................................-hthththt    ",
"   hthththqO....................................1hthththh   ",
"   hththth$.....................................oqhththth   ",
"  thhthth:.......................................$thththth  ",
"  htththqO........................................:hhththt  ",
"  thhtht*.........................................oeththth  ",
" hhtthtw...........................................-hththth ",
" hthhtt-...........................................othththt ",
" hhthth+............................................6ththtt ",
" tthth6..............o$.............O@..............=hththhh",
"hhthth-.............,htw%.........+6thw+............+hhthtth",
"hhhtht$............-hthth$........wththwo............eththht",
"ihththo...........+tththt6.......*ththht=............5hththt",
"hththe............%hhththho......5hthtth3............:ththth",
"ththt8............-ththtthO......7hththtw............-htthth",
"hthth6............=hththhtO......6ththth8............*thhtht",
"ththt6............$hhthttq.......,hththt1............*htthth",
"hihth6.............qththh:.......$ththth@............*thhtht",
"hhthtw.............@ehhtqX........-htht-.............-ththht",
"hththe..............O<3-X..........*33*..............:hthtth",
" hththo..............................................6ththt ",
" ththt$..............................................ehthth ",
" ththt-.............................................#hthhth ",
" hthth6.............................................*thttht ",
"  hththo............................................6hhtht  ",
"  ththt-...........................................+ththth  ",
"  hththeo..........................................2hthtth  ",
"   tthht-.........................................+tththh   ",
"   hththeX........................................2hhthth   ",
"    hthth:.......................................+htthth    ",
"    hthtth$.....................................owthhtht    ",
"     hthhte+....................................2thtthh     ",
"      htthtwo..................................-htthth      ",
"       hhthh9o................................;hthhth       ",
"       htthttw+..............................-thhthth       ",
"        hhthhtw@...........................o6thtthht        ",
"         hhtthth;.........................$whtththt         ",
"          thhththw*.....................+6ththhthh          ",
"            htththtw*o................$6hthtthth            ",
"             hhthtthth5*#.........o$:rthththhth             ",
"              hhhthththttr651<216wthhhhthththh              ",
"                ththththththththhththtththth                ",
"                  hththththththtththththtt                  ",
"                     hthththththhhhthth                     ",
"                         ththihhhit                         "
};
