/* XPM */
static char *_bfb53681410431d88586573598615f5xXorriQEfdHB8Ct2[] = {
/* columns rows colors chars-per-pixel */
"64 64 15 1 ",
"  c None",
". c #2F032A",
"X c #4D162E",
"o c #44343B",
"O c #6A353B",
"+ c #6D257E",
"@ c #605357",
"# c #776B73",
"$ c #70727B",
"% c #B36152",
"& c #E4A368",
"* c #BE22AB",
"= c #AEB4BA",
"- c #DADADA",
"; c #E4E7E7",
/* pixels */
"                                                                ",
"                                                                ",
"                                                                ",
"                                                                ",
"                                                                ",
"                                                                ",
"                       XXXXXXXXXXXXX                            ",
"                    XXXXXXXXXXXXXXXXXXXXXXX                     ",
"                 XXXXXXXXXXXXXXXXXXXXXXXXXXXX                   ",
"               .XXXXXXXXXXXXXXXXXXXXXXXXXXXXXXX                 ",
"             ......XXXXXXXXXXXXXXXXXXXXXXXXXXXXXXX              ",
"            .........XXXXXXXXX++++XXXXXXXXXXXXXXXXXXX           ",
"           X.X.......XXXXXXXX++++++++XXXXXXXXXXXXXXXXXXXXXX     ",
"          XXXX.........XXXX&%%%XXX++++++XXX+XXXX   XXXXXXXXXX   ",
"          XXX..XX.....XXX&&&&&&%%%XXX++++XXX++XX                ",
"          XXX.X......XX&&&&&&&&&&&%%XXX+++XXX++XX               ",
"         XXXXXX.....XX&&&&&&&&&&&&&&%XXXX+++XX++XX              ",
"         XXXXX.....XX&&&&&&&&&&&&&&&&%XXXX+++XX+XX              ",
"         XXXXX....XXX&&&&&&&&&&&&&&&&&%%XXX+++XX+XX             ",
"         XXXXX...XXX&&&&&&&&&&&&&&&&&&&%%XXXX++X+XXX            ",
"         XXXXX..XXXX&&&&&&&&&&&&&&&&&&&&%%XXX+++X+XX            ",
"         XXXXX&XXXX&&&&&&&&&&&&&&&&&&&&&&%%XXX++X+XXX           ",
"        XXXXX&&XXXX&&&XXXXXXXXX&&&&&&&&&&&%%XXX+++XXX           ",
"        XXXX&&&XXX%&XXXX......XXX&&&&&&&&&&%XXXX++XXXX          ",
"        XXX&&&XXXX%&&&&&%%%%%%..XX&&&&&&&&&&%XXX+++XXXX         ",
"       XXX.&%&XXXX&&&%%.......%%..&&&&&&&&&&%XXXX++XXXXX        ",
"      XXX..&%%XXX%&&&&&%.--XX-.%%&&&&&&&&&&&&XXXX++XXXXXX       ",
"     XXX..&&%%XXX%&&&&&&%.-XXX-.%&&&&&XXXXX&&XXXX++.XXXXX       ",
"    XXX..X&&%XXXX%&&&&&&&%%---%%%&&&&&....XX&XXXX*+.XXXXXX      ",
"  XXXX..XX&&&XXXX&&&&&&&&&&%%%&&&&&&&&%%%%%XXXXX**+..XXXXX      ",
" XXXX..XXXX&XXXXO&&&&&&&&&&&&&&&&&&&&%%....%XXXX**+...XX XX     ",
" XXXXXXXX..&XXXXO&&&&&&&&&&&&&&&&&&&&%%-X-X.&XXX***...XX XX     ",
"  XXXXXX...XXXX%O&&&&&&&&&&&&&&&&&&&&&&%XX-..XXX***...XX  XX    ",
"  XXXXX....XXXX%O&&&&&&&&&&&&&&&&&&&&&&&%%.&&XXX***...XX  XX    ",
"  XXXXX...XXXX%%O&&&&&&&&&&&&&&&&%%%&&&&&&&&.XX***.....XX  XX   ",
"  XXXXX...XXXX%%O%&&&&&&&&&&&&&&OO%&&&&&&&&&.XX***.....XX       ",
"   XXX...XXX.%%%O%&&&&&&&&&&&&&&&&&&&&&&&&&..XX**......XX       ",
"    ...XXX...%%%O%&&&&&&&&&&&&&&&&&&&&&&&&&..XX**.. ...XXX      ",
"    .XXX.....%%%O%&&&&&&&&O&&&&&&&&&&&&&&&&..X**... ...XXX      ",
"    XXX......%%%OO%&&&&&&&O%%&&&&&&&&&&&&&...X**..X ..XXXX      ",
"   XXX..X.X..%%%OO%&&&&&&&&OO%%%&&&&&&&&&&..XX**.XX ..XXXX      ",
"  XXXXXXXX...%%OOOO&&&&&&&&%%OOO%%%%&&&&&...X***.XX ..XXXX      ",
"  XX XXXXX...%%OOOO%&&&&&&&&&%%%OO&&&&&&&..XX***XXX  XXXX       ",
"  X    XXXX..%%OOOOO%&&&&&&&&&&&&&&&&&&&...X ***XXX  XXXX       ",
"  X     XXX.%%%%OOOOO%&&&&&&&&&&&&&&&&&...XX ****XX  XXXX       ",
"         X..%%%%OOOOOO%&&&&&&&&&&&&&&&...XX   ***X   XXX        ",
"         ...%%%%OOOOOOO%&&&&&&&&&&&&&...XXX   X***   XX         ",
"          ..%%%%OO%OOOOOO%&&&&&&&&&.....XX   XXX*** XX          ",
"            %%%%%O%%OOOOOOO%&&&&&......XXX  XXXX ***            ",
"            %%%&%%%%%%OOOOOOOOO.......XXX XXXX                  ",
"            %%%&&%%%%%%%OOOOO...XX...XXX                        ",
"           %%%%&&%%%%%%&&&%%..XXX   XXX                         ",
"           %%%%&&%%&&&&&&&%%.XXX                                ",
"$;;;;$==   %%%%&&&&&&&&&&&&%%      @@@@                         ",
";;;;;$$===%%%%%%&&&&&&&&&&&%%%%@@@@##@@@                        ",
"$;;$$$$===%%%%%%&&&&&&&&%%%@@@@@######@@@@@                     ",
"$$$$$$$$=%%%%%%%&&&&&%%%@@@@@#####@@@##@@@@@@@                  ",
"$$$$$====%%%%%%%@@@@@@@@@@####@@@@@@########@@oooo              ",
"$$$====@@@@@@@@@@@@@@@@@##@@@@@@@#########oo@@@oooo             ",
"=====@@@@@@@@@@@@oo@@@@@@@@@@@######ooooooo@@@@@@@@@@           ",
"===@@@@@@@@@oooooo@@@@@@@@@@@@@@oooooooo@@#########@@@          ",
"@@@@@@@@@@oooooo@@@@@@@@@@@@@@@ooooooo@#####@@@#####@@@         ",
"@@@@@@@ooooooo@@@@@@@@@@@@@@ooooooo@@@@@@@@@@@@@#####@@@        ",
"@@@@oooooooo@@@@@@@@@@@@@oooooooo@@@@@@@@@@@@@@@@@#####@@       "
};
