/* XPM */
static char *_3eda5cce3584df1a054b6f32d13b2e6hRlMLwq2JVa7v8RS[] = {
/* columns rows colors chars-per-pixel */
"60 83 63 1 ",
"  c None",
". c black",
"X c #0A0102",
"o c #130204",
"O c #130304",
"+ c #130205",
"@ c #130305",
"# c #1C0307",
"$ c #1C0407",
"% c #1D0407",
"& c #260409",
"* c #270409",
"= c #260509",
"- c #270509",
"; c #30060B",
": c #31060B",
"> c #39070D",
", c #3A070E",
"< c #430810",
"1 c #4C0912",
"2 c #4D0912",
"3 c #4D0913",
"4 c #4C0A12",
"5 c #4D0A12",
"6 c #4D0A13",
"7 c #560A14",
"8 c #570A14",
"9 c #570A15",
"0 c #560B15",
"q c #570B15",
"w c #600B16",
"e c #600B17",
"r c #600C17",
"t c #600C18",
"y c #690D19",
"u c #6A0D19",
"i c #690D1A",
"p c #730E1B",
"a c #730E1C",
"s c #740E1C",
"d c #7D0F1E",
"f c #861020",
"g c #871020",
"h c #861120",
"j c #871021",
"k c #871121",
"l c #901223",
"z c #9A1223",
"x c #991224",
"c c #991324",
"v c #991225",
"b c #991325",
"n c #9B1224",
"m c #9A1324",
"M c #9A1225",
"N c #9B1225",
"B c #9A1325",
"V c #9B1325",
"C c #991226",
"Z c #991326",
"A c #9A1226",
"S c #9A1326",
"D c #991426",
/* pixels */
"                          VVVbVbVVS                         ",
"                       bVVVVbVbVVbVbSS                      ",
"                      VVbVVVVbVzbVbVVzS                     ",
"                    VVVVVbVbVVVSVbVbVSSSS                   ",
"                   VVbVbbVSSSSSSVVSSVbVbbb                  ",
"                   VbVbVVbl5&X.X-qlSVVbVVb                  ",
"                  VbVbVbbh@.......@fVbVbVVz                 ",
"                  bVbVbVV$.........=bVbVVVV                 ",
"                  SzVVVbS...........VbVbVbV                 ",
"                  SSVVbVS=.........,bVbVbVV                 ",
"                  SSVbVbSl:.......-lVbVbSSS                 ",
"                   SbVbVSzSs<==;<sVVbVbVzS                  ",
"                    SzzSSVVVbVbVSSbVbVVVV                   ",
"                     SSSzVbVVbVbzSVbVbVV                    ",
"                      SSVbVbbVbVVVVVbVV                     ",
"                       SbVbVVbVbVVVVV                       ",
"                         VVVbVbVVbVb                        ",
"                         VVVVbVbbVbV                        ",
"                         VVVbVbVVbVV                        ",
"                         bVVVbVbbVVV                        ",
"                         SSVbVbVVbVb                        ",
"                         SSzVbVbbVbV                        ",
"                         SbVbVbVVbVb                        ",
"                        SbVbVbVbbVbV                        ",
"                    SSSVbVbVbVbVVbVbVbbV                    ",
"                  VVVbSzVbVbVVVbbVbVbVVbbb                  ",
"                bVVVbVVVbVbVVVVzVbVbbVbVbVbb                ",
"              VVVbVVVbVVVbVbVVVSbVbVVbVbVbVVVV              ",
"             VVbbVbVbVVVbVSzVVSSbVVzbVbVVbVbVzSb            ",
"           zVVbVVbVbVbVVVbSSVVVVVbVSVbVbbVbVbSSbS           ",
"          SSVbVbbVbVbbVVbldwq58wpdSSbVbVVbVbVbbVzS          ",
"         SSSVVbVVbVbVlq,O.........X=0fVbbVbVbVVVVSS         ",
"        VbVbzSSSSSSp<X................=rSSSSSzbVbVbb        ",
"       bbVbVVSzzzf=.....................@wSzVVVbVbbVV       ",
"      bVVbVbVVSS5X........................:jVVbVVbVbVb      ",
"     VbVbVbVbVj=...........................@yVVbbVbVVV      ",
"     SSVVbVbSdO..............................5SSVbVbVbV     ",
"    SVzVbVbVdX................................5SbVVVbVbV    ",
"    VbzSSSVhX..................................5VVVVVbVb    ",
"   VzSSSzbh@....................................qVVVbVbVV   ",
"   VVVbVSz=.....................................XfzSVbVbV   ",
"  VVVbVbS7.......................................=VSbVbVVV  ",
"  VVbVbVfO........................................0SVbVbVV  ",
"  VVVbVb,.........................................XlbVbVVb  ",
" SbVbVbf...........................................5VbVbVVV ",
" bVbVbV4...........................................XbVbVbVV ",
" SVVSSV@............................................abVbVbV ",
" SVzSSa..............X=.............@#..............<VbVbVVS",
"zSzVbV1.............qVbf;.........@pVbhO............@SSSSzzc",
"SSVVVV=............5VVVbV=........fVbVbhX............lSzVVSS",
"VbVVVVX...........@zVVbVVa.......,VbVbbV<............uVbVbVb",
"bVbVVl............:SVbVbVVX......ubVbVVbu............0bVVVbV",
"VbVbVd............5SVbVVVVO......sVVbVbVf............5VVVbVz",
"bVbVbp............<SbVbzVb@......sVVVVVbd............,VVbVbS",
"VbVbVp............=VVbSSbh.......0VbVVSSe............,SzVbzS",
"bVbVbp.............fbVzSV0.......=bVVzSS#............,SSbVSS",
"SVbVSf.............$lVSSfX........5VVVV1.............1VbVbVc",
"SbVbSl..............@qu7X..........,yy,..............0bVbVVV",
" SVVSzX..............................................sVbVbV ",
" SVVVV=..............................................lbVbVb ",
" SSzVV5.............................................$VVbVVV ",
" SVVzSp.............................................>VbVbVV ",
"  VVzSSX............................................pVVbVb  ",
"  bVSSS5...........................................@bVbVbV  ",
"  VVVVblX..........................................qVVVVSS  ",
"   VVbbV5.........................................@VVVVVS   ",
"   VVbVblX........................................rVbVVVS   ",
"    bVbVVq.......................................@VVVbVV    ",
"    SSSzbV=.....................................XfbVbVbV    ",
"     SVVVbl@....................................qbVbVbV     ",
"      VVbVVfX..................................6VVbVVV      ",
"       bVVVVdX................................6VVVVVV       ",
"       VVSSzVhO..............................1bVDVVVD       ",
"        SSVVbVh$...........................XabVVVVVV        ",
"         SbVVbVz5.........................=fVVVVVVS         ",
"          bbVVVSVk,.....................@sbVVVzSVV          ",
"            SSzSVVVf>.................=aVVVbSzVS            ",
"             SSSVVbVVbu,$.........X=qlVVVVbVSSS             ",
"              SSVbVbVVVVSlpuwwweafbVVVVbVbVbSz              ",
"                bVbVVVVzSSSSSSSSVbVbVVbVbVbV                ",
"                  SSSSzVVVVVbVbVVVVbVbVVVS                  ",
"                     SVVVbVVVbVbzSVVbVV                     ",
"                         SzcVbbVSzS                         "
};
