/* XPM */
static char *_d4462b1b70c48dddd95abe5f6e50883anlmH5p4THSz15YO[] = {
/* columns rows colors chars-per-pixel */
"60 83 53 1 ",
"  c None",
". c black",
"X c #090B04",
"o c #090C04",
"O c #121608",
"+ c #121708",
"@ c #131708",
"# c #1B220C",
"$ c #1B230C",
"% c #1C220C",
"& c #242D10",
"* c #242E10",
"= c #252E10",
"- c #2D3914",
"; c #2E3914",
": c #364418",
"> c #374418",
", c #364518",
"< c #374518",
"1 c #3F501C",
"2 c #40501C",
"3 c #485B20",
"4 c #495B20",
"5 c #495C20",
"6 c #516624",
"7 c #526624",
"8 c #526724",
"9 c #5B7228",
"0 c #5B7328",
"q c #5C7228",
"w c #647D2C",
"e c #657D2C",
"r c #647E2C",
"t c #6D8930",
"y c #6E8930",
"u c #769434",
"i c #769534",
"p c #7FA038",
"a c #80A038",
"s c #89AB3C",
"d c #88AC3C",
"f c #89AC3C",
"g c #90B640",
"h c #91B640",
"j c #90B740",
"k c #91B740",
"l c #92B640",
"z c #92B740",
"x c #93B740",
"c c #94B740",
"v c #91B840",
"b c #92B840",
"n c #93B840",
/* pixels */
"                                                            ",
"                                                            ",
"                              zz                            ",
"                              zz                            ",
"                              zz                            ",
"                              zz                            ",
"                             zzz                            ",
"                             zzzz                           ",
"                             zzzz                           ",
"                             zzzz                           ",
"                            zzzzz                           ",
"                            zzzzz                           ",
"                            zzzzzz                          ",
"                            zzzzzz                          ",
"                           zzzzzzz                          ",
"                           zzzzzzz                          ",
"                           zzzzzzzz                         ",
"                           zzzzzzzz                         ",
"                          czzzzzzzz                         ",
"                          zzzzzzzzz                         ",
"                          zzzzzzzzz                         ",
"                          zzzzzzzzzz                        ",
"                         zzzzzzzzzzz                        ",
"                        czzzzzzzzzzz                        ",
"                    zzzzzzzzzzzzzzzzzzzz                    ",
"                  zzzzzzzzzzzzzzzzzzzzzzzz                  ",
"                zzzzzzzzzzzzzzzzzzzzzzzzzzzz                ",
"              czzzzzzzzzzzzzzzzzzzzzzzzzzzzzzz              ",
"             zzzzzzzzzzzzzzzzzzzzzznzzzzzzzzzzzz            ",
"           zzzzzzzzzzzzzzzzzzzzzzzznzzzzzzzzzzzzz           ",
"          zzzzzzzzzzzzzzzfi99479tinnnnzzzzzzzzzzzz          ",
"         zzzzzzzzzzzzf9:O.........o=8izzzzzzzzzzzzz         ",
"        zzzzzzzzzzzt1X................&9nzzzzzzzzzzz        ",
"       zzzzzzzzzzp&.....................+9zzzzzzzzzzz       ",
"      nzzzzzzzzz4X........................-pzzzzzzzzzz      ",
"     zzzzzzzzzp&...........................Orzzzzzzzzz      ",
"     zzzzzzzzuO..............................4zzzzzzzzz     ",
"    nzzzzzzziX................................4zzzzzzzzz    ",
"    zzzzzzzpX..................................5zzzzzzzz    ",
"   zzzzzznpO....................................9nzzzzzzz   ",
"   zzzzzzz*.....................................opzzzzzzz   ",
"  zzzzzzn7.......................................&zzzzzzzz  ",
"  zzzzzzaO........................................7zzzzzzz  ",
"  zzzzzz:.........................................ofzzzzzz  ",
" nzzzzza...........................................5zzzzzzz ",
" zzzzzz4...........................................ozzzzzzz ",
" zzzzzzO............................................tzzzzzz ",
" zzzznt..............o&.............O%..............1zzzzzzz",
"zzzzzz4.............8nza-.........OtzzaO............Onzzzzzz",
"zzzzzz&............5zzzzz&........azzznao............fzzzzzn",
"zzzzzzX...........Ozzzzzzt.......:zzzzzz2............rzzzzzz",
"zzzzzs............-zzzzzzzo......rzzzzzzr............7zzzzzz",
"zzzzzi............4zzzzzzzO......ynzzzzza............4zzzzzz",
"zzzzzt............2zzzzzzzO......tzzzzzzi............:zzzzzz",
"zzzzzt............*zzzzzzp.......8zzzzzz9............<nzzzzz",
"zzzzzt.............pzzzzz7.......&zzzzzz#............<zzzzzz",
"nzzzza.............#fnzzpX........5nzzz4.............5zzzzzz",
"zzzzzs..............O9r5X..........:rr:..............7zzzzzz",
" zzzzzo..............................................tzzzzz ",
" zzzzz&..............................................fzzzzz ",
" zzzzz4.............................................%nzzzzz ",
" zzzzzt.............................................:zzzzzz ",
"  zzzzzX............................................tzzzzz  ",
"  zzzzz4...........................................Ozzzzzz  ",
"  zzzzzsX..........................................9nzzzzz  ",
"   zzzzz4.........................................Ozzzzzz   ",
"   zzzzzsX........................................qzzzzzz   ",
"    zzzzn8.......................................Onzzzzz    ",
"    nzzzzz&.....................................Xazzzzzz    ",
"     zzzzzsO....................................9zzzzzz     ",
"      zzzzzao..................................5zzzzzz      ",
"       zzzzziX................................5nzzzzz       ",
"       zzzzzzaO..............................5zzzzzzn       ",
"        nzzzzza#...........................Xtzzzzzzz        ",
"         nzzzzzz5.........................&azzzzzzz         ",
"          jzzzzzca<.....................Otzzzzzzzz          ",
"            zzzzzzza<X................&tnzzzzzzz            ",
"             zzzzzzzzzr>%.........X&7fnzzzzzzzz             ",
"              zzzzzzzzzzzftrqqqqtazzzzzzzzzzzz              ",
"                zzzzzzzzzzzzzzzzzzzzzzzzzzzz                ",
"                  zzzzzzzzzzzzzzzzzzzzzzzz                  ",
"                     nzzzzzzzzzzzzzzzzn                     ",
"                         zzzzjzzznz                         "
};
