/* XPM */
static char *_b30ba7209aa446f9ce72429dcf75fdcYukLP8WoRLxQ51zA[] = {
/* columns rows colors chars-per-pixel */
"60 83 60 1 ",
"  c None",
". c black",
"X c #040408",
"o c #050408",
"O c #050508",
"+ c #090910",
"@ c #090911",
"# c #0A0910",
"$ c #0A0911",
"% c #0E0D19",
"& c #0F0E19",
"* c #131221",
"= c #171629",
"- c #181729",
"; c #1C1B31",
": c #1D1B31",
"> c #1C1B32",
", c #1D1B32",
"< c #211F3A",
"1 c #21203A",
"2 c #22203A",
"3 c #262442",
"4 c #262443",
"5 c #2A284A",
"6 c #2B284A",
"7 c #2B284B",
"8 c #2B294B",
"9 c #2F2D53",
"0 c #2F2D54",
"q c #302D52",
"w c #302D53",
"e c #34315B",
"r c #35325B",
"t c #35325C",
"y c #393663",
"u c #393664",
"i c #3D3A6C",
"p c #3E3A6C",
"a c #3E3B6C",
"s c #423F74",
"d c #433F74",
"f c #423F75",
"g c #433F75",
"h c #47437D",
"j c #47447D",
"k c #48447D",
"l c #4B4784",
"z c #4B4785",
"x c #4D4784",
"c c #4C4785",
"v c #4B4885",
"b c #4B4886",
"n c #4C4884",
"m c #4C4885",
"M c #4D4885",
"N c #4C4985",
"B c #4D4985",
"V c #4D4886",
"C c #4C4986",
"Z c #4D4986",
/* pixels */
"         mmmmmmmmmmmmmmmmmmmmmmmmmmmmmmmmmmmmmmmmmmm        ",
"          mmmmmmmmmmmmmmmmmmmmmmmmmmmmmmmmmmmmmmmmm         ",
"           mmmmmmmmmmmmmmmmmmmmmmmmmmmmmmmmmmmmmmm          ",
"            mmmmmmmmmmmmmmmmmmmmmmmmmmmmmmmmmmmmm           ",
"             mmmmmmmmm4...............4mmmmmmmmm            ",
"              mmmmmmmmm3.............3mmmmmmmmm             ",
"               mmmmmmmmm0...........0mmmmmmmmb              ",
"                bmmmmmmmm9.........0mmmmmmmmb               ",
"                 bmmmmmmmmiX.....Xslmmmmmmmb                ",
"                  bmmmmmmmmiX...Xilxmmmmmmb                 ",
"                   mmmmmmmmmd#.#dmnnmmmmmz                  ",
"                    mmmmmmmmmd*hmmmmmmmmz                   ",
"                     bmmmmmmmmmmmmmmmmmb                    ",
"                      bmmmmmmmmmmmmmmmb                     ",
"                        mmmmmmmmmmmmm                       ",
"                         mmmmmmmmmmm                        ",
"                         mmmmmmmmmmm                        ",
"                         mmmmmmmmmmm                        ",
"                         mmmmmmmmmmm                        ",
"                         mmmmmmmmmmm                        ",
"                         mmmmmmmmmmm                        ",
"                         mmmmmmmmmmm                        ",
"                         mmmmmmmmmmm                        ",
"                        mmmmmmmmmmmm                        ",
"                    mmmmmmmmmmmmmmmmmmBB                    ",
"                  mmmmmmmmmmmmmmmmmmmmmxmm                  ",
"                Zmmmmmmmmmmmmmmmmmmmmmmmmmmm                ",
"              mmmmmmmmmmmmmmmmmmmmmmmmmmmmmmmm              ",
"             mmmmmmmmmmmmmmmmmmmmmmmmmmmmmmmmmmm            ",
"           mmmmmmmmmmmmmmmmmmmmmmmmmmmmmmmmmmmmmm           ",
"          mmmmmmmmmmmmmmmkaqq36qyimmmmmmmmmmmmmmmm          ",
"         mmmmmmmmmmmmkw,$.........X*7gmmmmmmmmmmmmm         ",
"        mmmmmmmmmbmu1X................*qbmmmmmmmmmmm        ",
"       mmmmmmmmmmd*.....................#0mmmmmmmmmmm       ",
"      mmmmmmmmbm3X........................=dmmmmmmmmmx      ",
"     mmmmmmmmmd*...........................#tmmmmmmmmm      ",
"     mmmmmmmmi#..............................3mmmmmmmmm     ",
"    mmmmmmmmiX................................3mmmmmmmmm    ",
"    mmmmmbmdX..................................3mmmmmmmm    ",
"   mmmmmmbd#....................................wmmmmmmmm   ",
"   mmmmmbn*.....................................Xhmmmmmmm   ",
"  mmmmmmb6.......................................*mmmmmmmm  ",
"  mmmmmms#........................................8mmmmmmm  ",
"  mmmmmm,.........................................Xkmmmmmm  ",
" mmmmmmh...........................................3mmmmmmm ",
" mmmmmm2...........................................Xmmmmmmm ",
" mmmmmm#............................................ummmmmm ",
" mmmmmu..............X*.............#&..............2mmmmmmx",
"mmmmmm3.............8mmg-.........#ummd#............#mmmmmmm",
"mmmmmm*............4mmmmx*........dmmmmdX............kmmmmmb",
"mmmmmmX...........#mmmmmmu.......,mmmmmm1............rmmmmmb",
"mmmmmj............-mmmmmmmX......tmmmmmmt............6mmmmmm",
"mmmmma............3mmmmmmm#......ummmmmmd............3mmmmmm",
"mmmmmu............1mmmmmmm#......ummmmmmi............,mmmmmm",
"mmmmmy............*bmmmmmd.......8mmmmmm0............>bmmmmm",
"bmmmmy.............dmmmmm6.......*mmmmmz&............,mmmmmb",
"mmmmlh.............&kmmmdX........3mmmm3.............3mmmmmm",
"mmmmlj..............#9t3X..........,tr,..............6mmmmbx",
" mmmllX..............................................ummmmm ",
" mmnnl*..............................................kmmmmm ",
" mmmmm3.............................................&mmmmmm ",
" mmmmmu.............................................,mmmmmm ",
"  mmmmmX............................................ymmmmm  ",
"  mmmmm3...........................................#mmmmmm  ",
"  mmmmmkX..........................................wmmmmmb  ",
"   mmmmm3.........................................#mmmmmm   ",
"   mmmmmhX........................................wmmmmmm   ",
"    mmmmm6.......................................#mmmmmm    ",
"    mmmmmm*.....................................Xdmmmmmm    ",
"     mmmmnj#....................................wmmmmmb     ",
"      mmnnlhX..................................4mmmmmm      ",
"       mlllmiX................................4mmmmmm       ",
"       mmmmmmh+..............................3mmmmmmm       ",
"        Zmmmmmh#...........................Xummmmmbx        ",
"         Zmmmmmm3.........................*hmmmmmmz         ",
"          bmmmmmmd,.....................#ummmmmmmb          ",
"            mmmmmmmd,X................*ummmmmmmm            ",
"             bmmmmmmmmr,&.........X*6kmmmmmmmmb             ",
"              bmmmmmmmmmzkutwwqwudmmmmmmmmmmmb              ",
"                bmmmmmmmmmmmmmmmmmmmmmmmmmmm                ",
"                  bmmmmmmmmmmmmmmmmmmmmmZb                  ",
"                     mmmmmmmmmmmmmmmnZZ                     ",
"                         mmnlbmbmmb                         "
};
