/* XPM */
static char *bdd72bfff1274cbb959579466a333fc3Sp2at9JA9tAot0ve[] = {
/* columns rows colors chars-per-pixel */
"60 54 101 2 ",
"   c None",
".  c #744437",
"X  c #764B36",
"o  c #7B4F34",
"O  c #7A5535",
"+  c #7F5D33",
"@  c #2F5753",
"#  c #305B52",
"$  c #39674F",
"%  c #3B6C4E",
"&  c #37744F",
"*  c #3C744E",
"=  c #3B7D4F",
"-  c #346352",
";  c #366B51",
":  c #386F50",
">  c #377150",
",  c #387450",
"<  c #3A7850",
"1  c #5C5241",
"2  c #42764C",
"3  c #447C4B",
"4  c #BA311C",
"5  c #BE3E2A",
"6  c #87462F",
"7  c #8A4C2F",
"8  c #8F532D",
"9  c #92562C",
"0  c #965B2A",
"q  c #995F29",
"w  c #854030",
"e  c #815932",
"r  c #8C6B2E",
"t  c #C24B38",
"y  c #C75747",
"u  c #C75847",
"i  c #CB6455",
"p  c #D47F71",
"a  c #63AB3F",
"s  c #3D804E",
"d  c #4D8647",
"f  c #4E8E47",
"g  c #42834C",
"h  c #498449",
"j  c #45884B",
"k  c #4A8D49",
"l  c #508B47",
"z  c #4F9347",
"x  c #4D9148",
"c  c #539445",
"v  c #569A44",
"b  c #599D43",
"n  c #599F43",
"m  c #5B9F42",
"M  c #5B9F41",
"N  c #589A44",
"B  c #599E43",
"V  c #59A043",
"C  c #5AA142",
"Z  c #5CA141",
"A  c #5DA341",
"S  c #5EA341",
"D  c #5CA042",
"F  c #5CA242",
"G  c #5EA541",
"H  c #5EA641",
"J  c #5EA542",
"K  c #5DA241",
"L  c #61A840",
"P  c #61A940",
"I  c #62AA40",
"U  c #63AA40",
"Y  c #63AB40",
"T  c #64AB40",
"R  c #63AC40",
"E  c #63AC40",
"W  c #D88B7F",
"Q  c #D88B80",
"!  c #DC978D",
"~  c #DC988D",
"^  c #DD988D",
"/  c #DD988E",
"(  c #E0A49B",
")  c #E1A49B",
"_  c #E0A59B",
"`  c #E5B1A9",
"'  c #E5B2A9",
"]  c #E5B1AA",
"[  c #E5B2AA",
"{  c #EABEB8",
"}  c #EDCBC6",
"|  c #EECBC6",
" . c #EECCC6",
".. c #F2D8D4",
"X. c #F6E5E2",
"o. c #F7E5E2",
"O. c #F6E5E3",
"+. c #F7E5E3",
"@. c #F7E6E3",
"#. c #FBF2F1",
"$. c white",
/* pixels */
"                                                                                                                        ",
"        I a a       J < < s                 I E U       J <     < <             R R R       J < #                       ",
"      I j s g z I   3 # # n I I I U       E j s g c v < = # s H I J I v s     R j s g z I   3 # @ n I I I I E           ",
"      j - - - * x b , @ v x j j j g & # < j - - - , k v < @ V x j j j s < s < j - - - , x b , @ c x j j j j k U         ",
"        # @ - * k c ; l k = ; - - - - # - - @ @ - , k c ; l k = ; - - - - - $ - # @ - & k c ; l x < ; - - - ; x R       ",
"        @ - ; ; = d - a < ; # - # # # - @ @ @ - ; ; 3 j - a = ; # - - @ # - @ @ # - ; ; = d - a < ; # - - @ # > z       ",
"        2 j ; @ - = 3 a s # * h h 2 * ; @ 2 2 d ; # - 3 3 a < # % d h 2 2 ; @ 2 2 d ; # - 3 3 a s # * h h 2 % # =       ",
"      a A n 3 % * h a V , ; c V n n c : @ v m n 2 % & h a V , % z n n n c % @ N n n 2 % * g a n > ; c n n n l 2         ",
"        , < c I c % n = @ V j < < , g v $ # , , c I c % n = @ V j < < < g N - # , < c L c % n = # m j < * < s J         ",
"      = # @ > z I n = = @ A j - # @ - h E < # @ > z a n = = @ A j - @ @ - g a = # @ ; c a n = = @ A j - @ @ - s a       ",
"        @ @ @ ; k a V @ a g # @ h I v # a @ @ @ @ ; k a m @ a g - @ h I c - a @ # @ @ ; k a m @ R g - @ h a c - a       ",
"        n $ ; ; ; k A @ a s - d k g k v - @ c $ ; ; ; k m # a s # d x g k c - @ c - ; ; ; k m @ R g # d z g f n         ",
"      R k c 2 # - j m @ U g - f d ; j m @ v k c 3 # - j A @ a g # l k $ j m # c x c 3 # ; j A @ a s - f d ; j a         ",
"      a s V 2 @ - j n @ k ; d l * # ; h @ U g n 2 @ ; j m @ k ; d l * # ; j @ a g V 2 @ - j n @ k ; d l * @ > k         ",
"      z > k d % ; j A @ ; @ c k ; # - < @ z ; k d ; - j m @ ; @ c k ; # - < # x ; j d % - j n @ ; # c k ; @ # <         ",
"      = # , v h ; k c @ - # v k ; # - ; # ; # > v h ; k c @ - # v k ; # - ; # ; # > v h ; k c @ - # v k ; # ; =         ",
"        # ; k 3 * c ; # = # l g - - ; - @ @ # & k 2 2 c ; # = # f g - - ; - # @ # ; x 3 2 z ; # = # f g - - &           ",
"        = - ; ; - , 4 4 4 4 4 4 4 4 4 4 4 4 4 4 4 4 4 4 4 4 4 4 4 4 4 4 4 4 4 4 4 4 4 4 4 4 4 4 4 4 4 w # # - =         ",
"        = - @ @ ; > 4 4 t @.@.@.@.@.O.O.@.@.@.@.' 4 4 4 4 4 4 4 4 4 4 4 4 4 4 4 4 4 4 4 4 4 4 4 4 4 4 w ; k a           ",
"        I E E h @ % 4 4 t $.$.$.$.$.$.$.$.W Q $. .4 4 4 4 4 4 4 4 4 4 4 4 4 t t t t t 5 4 4 4 4 4 4 4 w # - j a         ",
"      I j s g z d - 4 4 t $.$.$.$.$.$.$.@.4 4 #.} 4 4 4 4 4 4 4 4 4 4 4 4 4 ! $.$.$.$.#.y 4 4 4 4 4 4 0 V A c $         ",
"      j - - # , k k 4 4 t $.$.$._ ~ ~ ! ~ ( ' $.} 4 4 4 4 4 4 4 4 4 4 4 4 4 4 _ $.$.$.$.#.y 4 4 4 4 4 9 j j k c         ",
"          @ - , k c 4 4 t $.$.! 5 i t 4 4 y $.$.} 4 4 4 4 4 4 4 4 4 4 4 4 4 4 4 } $.$.$.$.#.y 4 4 4 4 w - - ; k         ",
"          ; ; ; 3 h 4 4 t $.{ 4 ..@.t 4 4 4 $.$.} 4 4 4 4 4 4 4 4 4 4 4 4 4 4 4 5 ..$.$.$.$.#.y 4 4 4 w - # # ;         ",
"          z % @ - 3 4 4 t @.5 ~ $.p 4 4 u 4 } #.! 4 4 4 4 4 4 4 4 4 4 4 4 4 4 4 4 t X.$.$.$.$.#.u 4 4 8 h 3 % @         ",
"        V V 2 % & h 4 4 t #.~ $.` 4 4 t @.W 5 t y 4 4 4 4 4 4 p $.$.$.$.$.$.$.$.$.$.$.$.$.$.$.$.#.u 4 0 b b c %         ",
"        = < c I c % 4 4 t $.$.$.i 4 5 @.$.$. .#.} 4 4 4 4 4 4 W $.$.$.$.$.$.$.$.$.$.$.$.$.$.$.$.$.#.y 7 < * g V         ",
"          @ > z a n 4 4 t $.$.$.i 4 y $.$.$.$.$.} 4 4 4 4 4 4 p $.$.$.$.$.$.$.$.$.$.$.$.$.$.$.$.$.$._ w # @ - g a       ",
"          @ # ; x a 4 4 t $.$.$.i 4 4 } $.$.$.$.} 4 4 4 4 4 4 p $.$.$.$.$.$.$.$.$.$.$.$.$.$.$.$.$.] 4 6 3 V c g a       ",
"        R $ ; ; & x 4 p #.$.$.$.i 5 i i $.$.$.$.} 4 4 4 4 4 4 y ~ ~ ~ ~ ~ ~ ! ! ! ! X.$.$.$.$.$.] 4 4 9 k j k V j       ",
"        k c * # - j 4 ' t t t t 5 i X.5  .$.$.$.} 4 4 4 4 4 4 4 4 4 4 4 4 4 4 4 4 ! $.$.$.$.$.] 4 4 4 q k > j J =       ",
"        < n 2 # - j 4 (  .` ( ~ ( ..$.! u $.$.$.} 4 4 4 4 4 4 4 4 4 4 4 4 4 4 4 ! $.$.$.$.$.] 4 4 4 4 9 * # * z =       ",
"        ; x d $ - j 4 4 p $.$.$.$.$.$.#.t ] $.$.} 4 4 4 4 4 4 4 4 4 4 4 4 4 4 ~ $.$.$.$.$.] 4 4 4 4 4 7 ; @ - < ;       ",
"        # , v h - j 4 4 t $.$.$.$.$.$.$.} t #.$.} 4 4 4 4 4 4 4 4 4 4 4 4 4 ~ $.$.$.$.$.' 4 4 4 4 4 4 7 ; # ; ; @       ",
"          , c 3 ; j 4 4 t $.$.$.$.$.$.$.$.! } $.} 4 4 4 4 4 4 4 4 4 4 4 4 4 t t t t t t 4 4 4 4 4 4 4 6 - - > #         ",
"          @ @ ; x V 4 4 u $.$.$.$.$.$.$.$...} #.} 4 4 4 4 4 4 4 4 4 4 4 4 4 4 4 4 4 4 4 4 4 4 4 4 4 4 w @ @ - =         ",
"        < - @ @ - > 4 4 { @.@.@.@.@.@.O.' 4 p { 5 4 4 4 4 4 4 4 4 4 4 4 4 4 4 4 4 4 4 4 4 4 4 4 4 4 4 w ; k a           ",
"        J J S 3 # * r O . . o X . X + r . . r r r + . O r O . . O X . X + r . . r r r e . o r O . . O 1 # ; k a         ",
"      I k j j f h - g - # l B v c d - $ @ c f j j f 3 - j - @ d N v c d - ; @ c k j j f h - g # @ l n v c N c $         ",
"      k ; - - = k d , @ f j k k x g - # % k ; - - = l d * @ f k k k k h - @ ; k ; - - = k d < # l k k k k k z f         ",
"          @ - > k v % h c s ; ; ; ; - # ; - @ @ - > k v ; d c = ; ; - ; - @ - ; # @ - & k v % h z s ; ; ; ; * c         ",
"          ; ; ; 3 k # a < > # - # @ # - @ # @ - ; > 3 d - a < > # - # @ # - # @ @ - ; % 3 k - a = & # - # @ # * b       ",
"          j % # - = 2 a = # % 3 3 % % ; @ % % g ; @ - = 2 a = # % 3 3 % % > @ % % g % @ - * 2 a = # ; 3 = % $ # <       ",
"        J J 2 - ; j a L = - z J J J N - @ n J J 2 - ; j a L < - z J J L c - @ A J J 2 - ; j a A * - c G J G c $         ",
"        = = v a l % J = @ A j = = = j n @ # < < v E l % J < # A j < s < j m @ @ < = v a l % J = @ M j = s < j R         ",
"          @ > x a V = = @ n j - @ @ - g a = # @ ; c a V g < @ A j - # # - s a = # # ; z a V = = @ S j - @ @ - g R       ",
"          @ # ; z a N # A j - # 2 L l - a # @ @ # ; x a N # V j - # 3 V l $ a # @ @ # > x a B # n j - # 3 V c s R       ",
"        I $ ; ; % x m @ a g - 2 k d k v % @ l % - ; & x V @ U g - 3 f j k c % @ f $ - ; % z n @ a g - 3 z j x V j       ",
"        k c * # - j F @ R s - l d ; j A @ l k z 2 # - j V @ U g # l k ; j A @ l k l * # - j m @ U g # l k ; k J s       ",
"        = V 2 @ - j F @ z > 3 k 3 # , k @ I g n 2 @ ; j V @ z : 3 f 2 # * k @ a g A 3 @ ; j A @ z ; 3 k 2 # , 3 <       ",
"        ; k d $ - j A @ > @ v x - @ - < @ v > k h $ - j V @ ; # c k ; @ # ; @ v > k d $ - j V @ > # v k ; @ @ # <       ",
"        @ , v h - 3 c @ - @ c k ; @ - > @ , # ; c h ; k l @ # @ N k -     @ @ > # ; c h - g V @ @ @ v d - @ @           ",
"          < c 3 @ - , @ < # l j ; - > @ @ @ @ @ d 3 2 c @ @   @ k 2         # @ @ @ l 3 @ $ v @   @ l 2 @ @             ",
"          @ @           @   # @     @         @ @     @         @                   @       @       @                   "
};
