/* XPM */
static char *be46dbcc9def4632c6b40989c3d3aafaHl64WvtXQ3K4m0nX[] = {
/* columns rows colors chars-per-pixel */
"60 54 70 1 ",
"  c None",
". c #2F5753",
"X c #305751",
"o c #305B52",
"O c #39674F",
"+ c #3B6C4E",
"@ c #3C744E",
"# c #3B7C4F",
"$ c #336352",
"% c #396750",
"& c #356B51",
"* c #386F50",
"= c #3C625E",
"- c #377250",
"; c #387450",
": c #397850",
"> c #42764C",
", c #447C4B",
"< c #496C68",
"1 c #567773",
"2 c #63AB3F",
"3 c #3D804E",
"4 c #4C8647",
"5 c #4D8F47",
"6 c #42834C",
"7 c #498449",
"8 c #45884B",
"9 c #4A8D49",
"0 c #508B47",
"q c #4F9447",
"w c #4D9148",
"e c #539445",
"r c #569A44",
"t c #599E43",
"y c #5D9F51",
"u c #5DA241",
"i c #61A840",
"p c #5B8071",
"a c #63817E",
"s c #678D7D",
"d c #688F7C",
"f c #69967C",
"g c #6C9C7B",
"h c #749B78",
"j c #6EA07A",
"k c #77A077",
"l c #76A977",
"z c #7BAF75",
"x c #73A678",
"c c #81B373",
"v c #8AC06F",
"b c #7D9693",
"n c #8AA09E",
"m c #97ABA9",
"M c #98AEA8",
"N c #9CB5A7",
"B c #99B1A8",
"V c #A1BBA5",
"C c #A4B5B4",
"Z c #A5BAB3",
"A c #A4C0A4",
"S c #B1CBAE",
"D c #B1C0BE",
"F c #BECBCA",
"G c #CBD5D4",
"H c #D8DFDF",
"J c #D8E0DF",
"K c #E5EAE9",
"L c #F2F4F4",
"P c white",
/* pixels */
"                                                            ",
"    2222  u33:        iiii  u3  3::     iiii  i3.           ",
"   2836q2 ,ootiii2   i868er3:o3uiuir3  i668qi ,o.tiiiii     ",
"   8$o$@qr:or96886;o:8$o$:wq:.uw8886:338$$$:wr:Xr98898qi    ",
"    oX$:5r$093&$$&$o$$oX$;9r&093&$$$$$$$oo$:9e&0w:&$$$;9i   ",
"    X$&&#7$i:&o$$.o$Xoo$&&#7$i:&o$$.o&.X.$&&,7$i:&o$$.o&q   ",
"    ,7*.$3,i3o@77>@&.>>7+X$6,i3o>,7>;&X>>7&X$,,i3o;77>*o3   ",
"   iut,+>6iu;&qurte+.rrt,%@6iu;*ettte*Xrtt,*:6iu;%ettu0>    ",
"    ::eie*t:.u8::;6e%o;:eie*t6ot8::;6r%o;#euq&u#ot8:;:6u    ",
"   :o.&qiu:3Xu8$..$6i:o.-qiu::Xu8$oX$6i:o.;qiu##ot8%Xo$6i   ",
"    X..&wiuoi6o.7ie%ioXXX&9iuXi6$X72roiX..X&92u.i6$X7ir$i   ",
"    t%&&&9u.i6$4q69e%Xr%&&&9toi6o4569r%Xr&&&$wu.i6$7w69u    ",
"   iwe>o$8t.26$07&8t.e9q>o&8uXi6$07&8t.r9e,X$8uXi6o04&8i    ",
"   i3u,.$8u.9&75>o;7oi6t>o$8tX9&75@o+8.i3t,.$8uXw&75:o&w    ",
"   q-84+$8u.&.r9&oo:Xq*89%$8t.&or8&.$@.q@87+$8uX&or9&Xo,    ",
"   3o;r7*wq.$Xr9&o$&X*o;r7&9e.$orw&o$&.-.;e7&wqX$oe9&o&:    ",
"    o-9,>yfag1clbbdpaaafckhcf1gbclssfaaaabzlhcfadbcl&$:     ",
"    #o&&$gnaab1a1pbpaaaa1baab111aaaaaaaaa1aaaaaa1aaCoo%:    ",
"    #$..$ga.<KKKKKJKKKKKZ.....oX........XXXX......Xm&8i     ",
"    2227Xaa.<PPPPPPPPnnPG......X......<<<<<=......Xmo$8i    ",
"   2833q8aaX<PPPPPPPJ.oLG.............mPPPPL1......Nuuq%    ",
"   8$$$@8caX<PPPCmmmmCZPG..............CPPPPL1.....N885r    ",
"     X$@5caX<PPmob=..1PPG...............GPPPPL1....M$$-w    ",
"     &&O#xbX<PF.HK<...PPG...............=JPPPPL1...Mooo-    ",
"     w&X&gaX<K=mPb..1.GLm................<KPPPPL1..B7@+.    ",
"    ut,+@faX<LmPD..<Kn=<1......bPPPPPPPPPPPPPPPPL1.Ntue+    ",
"    :;eieaa.<PPPa.=KPPGLG......bPPPPPPPPPPPPPPPPPL1M;#6u    ",
"     .-qiva.<PPPa.1PPPPPG......bPPPPPPPPPPPPPPPPPPCm..$6i   ",
"     ..&9va.<PPPa..GPPPPG......bPPPPPPPPPPPPPPPPPDXm72t6i   ",
"    2+$&-xabLPPPa=aaPPPPG......1mmmmmmmmmmKPPPPPD.XM989t8   ",
"    8e#o$j1F<<<<=aK=GPPPG................mPPPPPD...N9-8u:   ",
"    #t>o$gaCGDCmCHPmaPPPG...............mPPPPPD...oB@o@q:   ",
"    -57%$gb.bPPPPPPL<DPPG..............mPPPPPF.....M&.$:-   ",
"    o;r7$g1.=LPPPPPPG<LPG.............mPPPPPZo.....B&.$-.   ",
"     ;e,&jb.<PPPPPPPPmGPG.............<<<<<<.......M&$-o    ",
"     ..&wv1.1PPPPPPPPJGLG..........................m..$:    ",
"    3$XX$gaXFKKKKKKKD.bG=.X.......XXX......X....XXXm&92     ",
"    uuu,opSBmmBMMMNAmmNVANmBABMMBMmMNAmmVAANmmVBmmBZo&5i    ",
"   iw8857$6o.5tre4$O.e98857$6oX4trr7$%.r98857$8oo0trrre&    ",
"   9&$$#w7@.599996Oo-9&$$#57#.099996&o&9&$$#57@o089585q0    ",
"   3o.$;9t+7q#-&&&$o&&..$-5r&7q3&&&&$o&&o.$-9r*7q3-&$&@ei   ",
"     &&&78$2#-o$oXo$.X.$&-,5$2#;o$oooo.o.$&&,5$i:;$$o.o-r   ",
"     8*X$#>2#oO,>%*-.*>,&X$#>2#o&,>%**.++6&X$#>i:o&,,@%o:   ",
"    uu,%&62u:$euiir$.tti,$$82i:$eiiur%.uui>%&6ii;%eiuur%    ",
"    ::ri0+i#Xu8:::8uoo::ri0*u3.u6:3:8u.o::ri0+i:.t63:38i    ",
"     X-q2t##.u8$XX$6i:oX&eit##.u8$ooo6i:o.-eiu3:.u8$o.$6i   ",
"     oo-w2rou8&X,u0%ioXXo*eirou8%o,u0%io..o*eirou8$o,uq3i   ",
"    i+$&+wto23$,587e>o0&$&-wu.i6o,w65r+X0&$&*wuoi6$,w8wuw   ",
"    9q@$$8u.26o05*8uX09e>o$8u.i6$04-8u.09e@o$8u.i6o04&8u3   ",
"    :u>.&8u.q&,5>o@8Xi3t>X$8u.q*,5@o:5Xi6t>.&8t.q*,5>$;6:   ",
"    -97%$8u.-or5&.o#.r;w7O&8u.&or5&.o&Xr-57O$8u.-or9&XXo:   ",
"    .@r7$#e.$.e8&.$-.-o&r,+85...e7$  ..;o&e7$6u...e7$XX     ",
"     ;e,.$;.:o06&$-.....4,>e.. .4>    ....4,X%rX .4>.X      ",
"     .X.    o oX. X    ... .    o         o.  .   o         "
};
