/* XPM */
static char *_f7ac45c915f497ad2d34800dcfa64e9KMH9toiVDYTVu6qo[] = {
/* columns rows colors chars-per-pixel */
"60 54 239 2 ",
"   c None",
".  c #2E5652",
"X  c #2F5752",
"o  c #2E5753",
"O  c #2F5753",
"+  c #305952",
"@  c #305953",
"#  c #305A52",
"$  c #305B52",
"%  c #305A53",
"&  c #305B53",
"*  c #305C52",
"=  c #315C52",
"-  c #305D52",
";  c #315D52",
":  c #315C53",
">  c #315D53",
",  c #315E52",
"<  c #315F52",
"1  c #315E53",
"2  c #335E52",
"3  c #39674F",
"4  c #3A674F",
"5  c #39694F",
"6  c #3A694F",
"7  c #386B4F",
"8  c #396B4F",
"9  c #3B6E4F",
"0  c #3A6F4F",
"q  c #3D6E4D",
"w  c #3E6F4D",
"e  c #3C6C4E",
"r  c #37744F",
"t  c #3A704F",
"y  c #3B724F",
"u  c #3E714D",
"i  c #3F714D",
"p  c #3E714E",
"a  c #3D724E",
"s  c #3C734E",
"d  c #38744F",
"f  c #39754F",
"g  c #3A744F",
"h  c #3B754F",
"j  c #39774F",
"k  c #3F754D",
"l  c #3C754E",
"z  c #3A7A4F",
"x  c #3E7A4D",
"c  c #3F7A4D",
"v  c #3C794F",
"b  c #3B7D4E",
"n  c #3B7C4F",
"m  c #3A7D4F",
"M  c #3B7D4F",
"N  c #3F7D4D",
"B  c #3E7E4D",
"V  c #3F7E4D",
"C  c #316051",
"Z  c #326052",
"A  c #326152",
"S  c #336252",
"D  c #336352",
"F  c #366151",
"G  c #346351",
"H  c #356351",
"J  c #366250",
"K  c #376250",
"L  c #336750",
"P  c #336552",
"I  c #346451",
"U  c #356451",
"Y  c #346551",
"T  c #356651",
"R  c #346751",
"E  c #356751",
"W  c #376650",
"Q  c #346552",
"!  c #346652",
"~  c #346851",
"^  c #346951",
"/  c #356951",
"(  c #366950",
")  c #366851",
"_  c #356A51",
"`  c #356B51",
"'  c #366A50",
"]  c #376B50",
"[  c #346852",
"{  c #366D50",
"}  c #366C51",
"|  c #366D51",
" . c #366E50",
".. c #366F50",
"X. c #376F50",
"o. c #366E51",
"O. c #376F51",
"+. c #386D50",
"@. c #386F50",
"#. c #377150",
"$. c #377250",
"%. c #387350",
"&. c #387450",
"*. c #397450",
"=. c #397550",
"-. c #397750",
";. c #397850",
":. c #3A7850",
">. c #3A7950",
",. c #3A7B50",
"<. c #42774B",
"1. c #40724D",
"2. c #40744D",
"3. c #42764C",
"4. c #43794B",
"5. c #447B4B",
"6. c #467C4A",
"7. c #467E4A",
"8. c #477E4A",
"9. c #42784C",
"0. c #417A4D",
"q. c #417E4C",
"w. c #427E4C",
"e. c #427F4C",
"r. c #62AA3F",
"t. c #63AB3F",
"y. c #63AC3F",
"u. c #3D804E",
"i. c #4D8647",
"p. c #4E8947",
"a. c #4D8F47",
"s. c #4F8E47",
"d. c #4E8F47",
"f. c #43814B",
"g. c #47804A",
"h. c #47824A",
"j. c #47844A",
"k. c #45874B",
"l. c #46864B",
"z. c #42814C",
"x. c #40824D",
"c. c #40834D",
"v. c #41834D",
"b. c #42834C",
"n. c #43834C",
"m. c #42844C",
"M. c #43844C",
"N. c #498149",
"B. c #4A8548",
"V. c #4A8549",
"C. c #498649",
"Z. c #4B8649",
"A. c #48844A",
"S. c #48874A",
"D. c #4C8648",
"F. c #4D8648",
"G. c #45884B",
"H. c #45894B",
"J. c #46894B",
"K. c #478B4A",
"L. c #498949",
"P. c #4B8848",
"I. c #4B8849",
"U. c #498A49",
"Y. c #498B49",
"T. c #48894A",
"R. c #4D8848",
"E. c #4C8A48",
"W. c #498C49",
"Q. c #498D49",
"!. c #4A8C49",
"~. c #4B8C49",
"^. c #4A8E49",
"/. c #4A8F49",
"(. c #4B8F49",
"). c #498C4A",
"_. c #4D8D48",
"`. c #4C8F48",
"'. c #4D8F48",
"]. c #508B47",
"[. c #508C46",
"{. c #508D46",
"}. c #4F9047",
"|. c #4E9147",
" X c #4E9247",
".X c #4E9347",
"XX c #4F9447",
"oX c #4C9148",
"OX c #4D9148",
"+X c #539145",
"@X c #529345",
"#X c #519046",
"$X c #509146",
"%X c #519146",
"&X c #509246",
"*X c #519246",
"=X c #529246",
"-X c #529346",
";X c #539445",
":X c #509546",
">X c #539546",
",X c #509646",
"<X c #529746",
"1X c #559444",
"2X c #569644",
"3X c #579942",
"4X c #579B43",
"5X c #549945",
"6X c #569844",
"7X c #579844",
"8X c #549A45",
"9X c #559A45",
"0X c #579A44",
"qX c #579B44",
"wX c #569A45",
"eX c #569C45",
"rX c #589B43",
"tX c #5B9F41",
"yX c #599D43",
"uX c #599F43",
"iX c #5B9F42",
"pX c #589A44",
"aX c #59A043",
"sX c #5AA142",
"dX c #5CA141",
"fX c #5DA341",
"gX c #5EA341",
"hX c #5CA042",
"jX c #5CA242",
"kX c #5EA541",
"lX c #5EA641",
"zX c #5EA542",
"xX c #61A840",
"cX c #61A940",
"vX c #62AA40",
"bX c #63AA40",
"nX c #63AB40",
"mX c #64AB40",
"MX c #63AC40",
/* pixels */
"                                                                                                                        ",
"        vXt.t.      kXM M M                 vXmXy.      kX,.    M ,.            vXMXy.      kXM X                       ",
"      vXG.x.x.,XmX  q.% % rXt.vXvXmX      vXH.v.x.,X8XV V 2 ,.kXvXkXvX8XM     vXG.x.x.,XvX  V % O iXvXvXvXMXMX          ",
"      G.Q Z Z h OX8X,.O 2X/.j.H.G.v.&.@ ,.H.P Z Z h /.,X-.O aXoXH.H.H.x.M M M j.Q Z Z h  XeXh % 2X/.H.H.G.G.~.vX        ",
"        % O Q h /.2X^ ]./.u.^ Q Q Q K @ Q Q O O P h /.8XQ p./.u.^ Q Q Q Q Q Q P % O Q h /.4X^ p.oXu.| Q Q Q %./.MX      ",
"        O Q ^ ^ c j.K t.,.^ > P Z X % ^ O O O P ^ ^ c B.K MXM | > Z Z O 2 Q O O O Q ^ ^ 9.f.J t.,.| O Z Z X % +.XX      ",
"        4.T.8 X Q V 5.vX,.2 i N.f.<.1.^ O 9.3.B.8 O P u.5.vXM % i j.f.3.i | O 3.3.j.{ O Q V 5.t.,.2 i j.f.3.e % M       ",
"      t.dXaX5.e k f.y.iX%.] @XuXaXaX@Xe O 2XuXuX5.e i f.t.iXd 8 @XiXaXiX@X8 O 2XiXiX5.e k n.t.iXh ^ @XiXiXiX@Xi         ",
"        z h XXlX@Xe aXM O dXH.,.&.,.n.8XK 2 #.,.,Xr.@Xe iXM O aXH.,.,.&.v.uXK * %.,.,XxX1Xe aX,.O dXG.z h z n.kX        ",
"      M % O t XXy.iXM M X dXH.P % X Z u.vXM % O +. Xt.iXM M O dXj.Q O O Z x.y.,.% O | ,Xy.aX,.,.O aXG.Q O % Z u.y.      ",
"        O O @ ^ /.vXdXO t.x.Z O N.t.2XK t.O O O O ^ /.t.dXO t.x.Z % N.vX2XK vXO O O % ^ /.t.jXO y.v.Z % N.y.2XJ y.      ",
"        iX3 | ^ ^ /.dXO y.x.Z i. Xx./.2XK O 2X3 | ^ ] /.iXO y.v.Z i.OXx./.2XK O 2X3 8 ^ ^ /.dXO y.u.2 i. Xu.Q.iX        ",
"      vX/.@X9.> Q G.iXO mXx.2 [.F.^ H.aXO 2X/.@X9.> Q G.dXO t.x.Z [.B.^ H.dXO 2X/.@X3.2 Q G.dXO y.x.2 s.B.^ G.t.        ",
"      t.x.aX3.X Q G.iXO /.^ B.s.i & %.l.O vXx.iX9.O ^ G.iXO /.] F.~.k > %.j.O vXx.iX3.O Q G.dXO /.] B.s.i % { /.        ",
"      XX%.T.i.e ^ G.dXO ^ % 7X/.^ O 2 ,.O ,X%.T.F.e Q G.iXO ^ % 2X/.^ O Z &.O @Xd T.B.8 P G.aXO ^ % 2X/.^ O Z M         ",
"      M % %.8XN.8 /.@XO Q % 2X/.^ 2 Q ^ O +.O %.8XN.] /.@XO Q % 2X/.^ 2 Q | O | % &.8XN.8 /.@XO Q % 2X/.| 2 L M         ",
"        2 %.~.5.1.,X{ O M 2 ].v.Q K | Z O O 2 |  X4.3.,X| O ,.% ~.l.Q K | Z O O 2 | OX4.3.XX| O M % ~.j.Q Z r           ",
"        M Z | ^ Q d O K M % %.P % 2 Z -.O O ,.2 | [ Q &.O K M 2 %.Z % 2 P #.O O ,.2 | [ Q %.O K M % d Z % 2 Q M         ",
"        M 2 O O Q &.Q y.M X O O ^ /.2XX O O ,.Z O O P &.Q y.M X O O ^ /.2XO O O ,.Z X O Q d K y.M % O O ^ /.vX          ",
"        vXy.t.N.X e kX,.O X &.P O ^ G.aXO O dXMXt.N.X 8 kX,.X X &.Q @ Q G.dXO O aXy.MXN.% 8 kXM X X d P % Q j.r.        ",
"      vXG.x.x. XF.Z V X O 2XkXdXdXR.2 K O iXH.x.u.OXF.Z q.* O 2XdXkXdXF.X K O dXG.x.u. Xi.Z V X X 2XdXkXdXdX@X3         ",
"      G.Q Z Z h T.@X,.O 2X/.l.H.H.q.| @ h v.Q Z Z k T.OXh X 2X/.H.H.H.V | @ %.H.Q Z Z h T.@Xh O 2X/.G.G.G.G.T.rX        ",
"          O P h /.8XQ ].oXu.| Q Q P Z O P P @ X Q h /.2X^ p./.M ^ Q Q P Z @ P P % O W h /.rXQ ]./.u.^ Q P P +./.        ",
"          | ^ ^ 9.j.K MX,.| O Z 2 O 2 [ X O O Q ^ | c B.K y.M | > Z Z O 2 ^ O O O Q ^ ^ c f.3 t.V | % Q Z O 2 ^         ",
"           X8 % P V 5.t.V X i j.f.3.i | O 3.4.G.8 X P V 5.t.M X i j.f.9.1.^ O 3.9.B.8 O Q V 5.vX,.% i j.f.3.e %         ",
"        aXaX5.e k f.y.aX&.] @XiXaXuX@Xe O 2XiXaX5.e i n.y.iX-.8 @XuXuXuX@Xe O 2XiXiX5.8 i n.y.iX%.8 @XaXaXuX@Xe         ",
"        M h ,Xr.@Xe aX,.O dXG.,.c &.k.8XK X h &.,XvX@Xe yXM O aXH.,.h z v.uXK 2 #.,.,Xt.@Xe aXM O dXj.,.&.,.k.dX        ",
"          O |  Xy.eXV V O dXG.Q O @ Z u.y.M % O #. Xt.iXM V O dXH.P X O K u.vX,.X O { XXy.aX,.V O dXH.P @ X Z x.y.      ",
"          O % +.OXt.pX% dXH.Q @ 5.dX].3 t.% X O % %.OXMX8X% dXG.Q % 5.dX].W t.% O O % 8 OXt.pX% dXG.Q % 5.dX,Xv.y.      ",
"        MX8 ^ ^ %.OXiXO mXu.K 5.OXG.T.2Xe O [.3 Q ^ +.OXdXO y.v.K 5.s.G.T.2Xe O ~.3 ^ | %.OXiXO y.v.K 5. Xj./.aXG.      ",
"        T.@X3.> Q H.dXO y.v.Z ].B.#.G.dXO ].T. X3.2 Q H.iXO t.u.Z [.T.#.G.dXO ].T.@Xk 2 Q H.dXO t.x.Z [.T.| H.kXM       ",
"        ,.uX3.O Q H.iXO t.d 5./.k 2 k ~.O y.v.aX3.O Q H.dXO @Xd 5.~.k 2 k ~.% y.u.aX3.O Q H.iXO  X%.5.~.k 2 k OXM       ",
"        +.OXB.3 Q H.iXO 8X2 7XR.^ O Z ,.O 5X&.~.B.8 P G.iXO | % 2X/.^ O Z z X 5X%./.B.8 Q G.iXO #.O 8X/.^ O Z M |       ",
"        % &.8XN.Q H.iXO %.% 2X/.| X ^ | O #.X -.eXN.^ /.@XO Z % 2X/.^ % Q { O -.% %.eXN.] /.,XO Z O 2X/.^ % P #.X       ",
"          &.,X5.| H.8XO X 2 2X/.[ Z -.X 2 O * | ,X8.3.8X-.O M * @XG.Q Q %.% O O % | ,X5.1.8Xd O u.* @XG.Q K #.*         ",
"          O % ^ /.iX,.O ,.,.uX3.O O Z V ,.O ,.Z +.^ Q %.X X M X %.P O O Z z O O z Z 8 | Q d O O ,.X -.P % O Z ,.        ",
"        ,.Z X X Q #.K t.M * O O ^ ~.7X% O O ,.Z O O ^ &.K t.M 2 O O ^ ~.7XO O O z Z X X Q %.K t.M % O X ^ ~.t.          ",
"        kXkXdX5.% i 4Xx.* X #.P % ^ ~.2XO O pXdXdX5.X i iXu.% O %.Z % ^ /.7XO O rXkXaX5.% 1.rXx.% O t Z % ^ /.t.        ",
"      vX/.G.G. XN.Q x.2 O [.uX2X2XB.K 3 O 2XoXH.G. XN.Q x.2 O p.iX2X2XB.K 3 O 2X/.j.G.s.N.Q x.2 O ].iXpX2XrX@X8         ",
"      oX^ Q Q 9. XB.,.O ].T./././.x.^ % | /.^ P Q 9.s.j.z O p././././.x.Q % | /.^ Q P c s.B.z O ].T./././.~. Xs.        ",
"          O P &./.8X| N.XXu.| ^ ^ ^ Q @ ^ | O O Z d /.8X| N.XXu.| ^ | ^ Q % ^ ^ % % Q h /.8X8 N. Xu.| ^ ^ | k XX        ",
"          ^ ^ | q.p.K t.M t Z Z 2 O 2 Z O O O K ^ { n.p.J y.,.#.2 Z 2 X 2 Z % O % Z ^ 8 q.R.K y.M d 2 Z 2 O % d 8X      ",
"          T.8 X Q c 3.t.M % 8 q.9.e d | O e e x.8 % P z 3.y.,.2 ] q.9.e 8 | O e e x.8 O P ,.4.t.,.% 8 q.9.8 8 2 M       ",
"        kXkX9.K ^ G.t.kXh Q @XkXkXkX7XK O dXkXkX9.K ] j.t.kXc Q @XkXkXkX8XK O dXkXkX5.2 ^ j.t.kX,.3 [.kXkXkX2XK         ",
"        V ,.8Xy.].8 kXM O dXG.M V M G.dXO O z M 8Xt.].e kXM X dXl.,.M M G.dXX O z M 8Xt.[.e kX,.X dXG.M ,.V G.t.        ",
"          O | XXt.iXM M O dXG.P O O Z u.t.M % O | ,XvXiXM M X dXl.P O X Z x.MXM % % |  Xy.iXM M X dXG.P O % Z x.t.      ",
"          O % %. Xt.8X2 dXG.Q % 5.dX[.W t.% O O % | OXt.pX% aXH.Q % 5.dX[.3 t.% O O % %.OXt.eX2 dXG.Q % 5.dX,Xx.t.      ",
"        t.8 Q ^ 8 OXdXX y.u.K 5. XG.T.2Xe X ].3 ^ | 8 OXdXO y.v.Z 5. XG.T.2Xe O ].3 ^ ^ 8  XiXO y.v.Z 5.s.G./.aXG.      ",
"        /.[.k Z P H.jXO vXx.2 [.R.| H.aX% ].T.@X3.> P H.dXO MXv.Z [.T.8 G.aXO ]./.[.3.> ^ H.iXO mXx.Z [.R.#.H.kXM       ",
"        M iX3.O P H.jXO XX%.5.~.k 2 k T.O t.u.iX3.O Q H.dXO XX+.5.s.k 2 k /.O t.v.aX3.X Q H.dXO XX%.5.R.k 2 %.g.M       ",
"        +.OXB.] P H.dXO | @ 2X/.^ O Z ,.O 8X&.OXB.] Q G.iXO | @ 2X/.^ % 2 | O 8X%.~.i.8 Q G.dXO +.@ 2X/.^ O O % M       ",
"        O &.8X8.K q.@XO Z @ 2X/.| X ^ | O d % | 2XN.^ T.].O O O 2XT.Q     O O %.% ] ,XN.P x.iXO O O 2XT.Q O O           ",
"          ,. X5.O Z z O &.2 ~.B.[ K %.O O O O O F.5.3.2XO O   O [.1.        O O O O p.5.O 3 2XO   O [.1.O O             ",
"          O O           %   % O     O         O O     O         O                   O       O       O                   "
};
