/* XPM */
static char *feec1214c06e444ad1ae4396906e9c8dIfInyCnwsWXPgMOp[] = {
/* columns rows colors chars-per-pixel */
"60 54 232 2 ",
"   c None",
".  c #273440",
"X  c #273540",
"o  c #283440",
"O  c #293440",
"+  c #283540",
"@  c #293540",
"#  c #283640",
"$  c #293741",
"%  c #283841",
"&  c #293942",
"*  c #293943",
"=  c #2A3842",
"-  c #293A42",
";  c #293B43",
":  c #2A3E41",
">  c #2A3F41",
",  c #293C42",
"<  c #2A3E42",
"1  c #2A3F42",
"2  c #293B44",
"3  c #293C44",
"4  c #293D44",
"5  c #293D45",
"6  c #2A3D45",
"7  c #293E44",
"8  c #2A3E45",
"9  c #293F46",
"0  c #2A3F46",
"q  c #2B4243",
"w  c #2C4243",
"e  c #2C4343",
"r  c #2B4542",
"t  c #2C4443",
"y  c #2D4743",
"u  c #2A4044",
"i  c #2B4144",
"p  c #2A4045",
"a  c #2B4244",
"s  c #2B4245",
"d  c #2A4046",
"f  c #2A4147",
"g  c #2A4247",
"h  c #2B4247",
"j  c #2A4347",
"k  c #2B4546",
"l  c #2B4447",
"z  c #2C4544",
"x  c #2C4744",
"c  c #2D4744",
"v  c #2C4746",
"b  c #2D4945",
"n  c #2C4946",
"m  c #2E4D44",
"M  c #2E4C45",
"N  c #2D4C46",
"B  c #2E4E46",
"V  c #2A4348",
"C  c #2A4448",
"Z  c #2B4448",
"A  c #2B4549",
"S  c #2B4648",
"D  c #2B4649",
"F  c #2B474A",
"G  c #2C4448",
"H  c #2C4648",
"J  c #2C4649",
"K  c #2C4749",
"L  c #2B484A",
"P  c #2B484B",
"I  c #2C4949",
"U  c #2D4B48",
"Y  c #2C4B49",
"T  c #2C484A",
"R  c #2C484B",
"E  c #2C4A4A",
"W  c #2C4B4A",
"Q  c #2C4A4B",
"!  c #2D4B4B",
"~  c #2D4D48",
"^  c #2D4E49",
"/  c #2D4D4A",
"(  c #2D4F4B",
")  c #2E4F4B",
"_  c #2C4A4C",
"`  c #2C4C4D",
"'  c #2D4D4D",
"]  c #2D4E4C",
"[  c #2D4E4D",
"{  c #2D4E4E",
"}  c #2C4F4E",
"|  c #2D4F4E",
" . c #2D4F4F",
".. c #2F5045",
"X. c #2F5046",
"o. c #2F5247",
"O. c #2E5048",
"+. c #2F5248",
"@. c #2F534A",
"#. c #2F5448",
"$. c #2E504F",
"%. c #2E514F",
"&. c #2F534F",
"*. c #2F544C",
"=. c #305246",
"-. c #305546",
";. c #305547",
":. c #305646",
">. c #315947",
",. c #305548",
"<. c #305748",
"1. c #315948",
"2. c #315949",
"3. c #315A4B",
"4. c #325D48",
"5. c #325D49",
"6. c #335E48",
"7. c #315D4B",
"8. c #325D4A",
"9. c #325F4B",
"0. c #30584D",
"q. c #30584F",
"w. c #315A4E",
"e. c #305A4F",
"r. c #315D4C",
"t. c #315D4D",
"y. c #305C4F",
"u. c #315C4F",
"i. c #315E4F",
"p. c #325F4E",
"a. c #325E4F",
"s. c #2D5150",
"d. c #2E5150",
"f. c #2E5350",
"g. c #2E5351",
"h. c #2F5750",
"j. c #2E5552",
"k. c #2E5752",
"l. c #2F5752",
"z. c #2F5653",
"x. c #2F5753",
"c. c #305850",
"v. c #305953",
"b. c #305B52",
"n. c #315C51",
"m. c #315D51",
"M. c #315E50",
"N. c #315C52",
"B. c #305D52",
"V. c #315C53",
"C. c #336049",
"Z. c #336249",
"A. c #336349",
"S. c #346249",
"D. c #35664A",
"F. c #35664B",
"G. c #34674B",
"H. c #32614C",
"J. c #32614F",
"K. c #33614F",
"L. c #33634F",
"P. c #34634D",
"I. c #34644C",
"U. c #34664D",
"Y. c #34654F",
"T. c #34664E",
"R. c #34664F",
"E. c #356A4B",
"W. c #366B4B",
"Q. c #376E4B",
"!. c #35684C",
"~. c #35684D",
"^. c #35694D",
"/. c #34684E",
"(. c #35684E",
"). c #356A4E",
"_. c #366A4E",
"`. c #366B4E",
"'. c #366D4C",
"]. c #376D4C",
"[. c #376F4D",
"{. c #376F4E",
"}. c #366E4F",
"|. c #37704E",
" X c #37714F",
".X c #38724D",
"XX c #38744D",
"oX c #39744D",
"OX c #39764E",
"+X c #39774F",
"@X c #39784F",
"#X c #3B7D4E",
"$X c #3B7C4F",
"%X c #3A7D4F",
"&X c #3B7D4F",
"*X c #326151",
"=X c #336350",
"-X c #336351",
";X c #326052",
":X c #326152",
">X c #326252",
",X c #336551",
"<X c #336651",
"1X c #336751",
"2X c #336552",
"3X c #346650",
"4X c #346751",
"5X c #346552",
"6X c #346652",
"7X c #346752",
"8X c #346850",
"9X c #346851",
"0X c #356951",
"qX c #356A50",
"wX c #356A51",
"eX c #356B51",
"rX c #356C51",
"tX c #366C51",
"yX c #366E50",
"uX c #376F50",
"iX c #377150",
"pX c #377051",
"aX c #387350",
"sX c #387450",
"dX c #387550",
"fX c #397550",
"gX c #397750",
"hX c #397850",
"jX c #3A7850",
"kX c #3A7950",
"lX c #3A7B50",
"zX c #3B7B50",
/* pixels */
"                                                                                                                        ",
"        &X&X&X      kXx.x.x.                zX&X&X      kXx.    x.x.            #XzX#X      kXx.$                       ",
"      &X;Xb.b.rX&X  x.& &  X$XzX&X&X      zX;Xn.n.rXiXx.x.& x.$XzXkXkXiXl.    zX;Xx.n.rX&X  x.& . .X&X&X&X&X&X          ",
"      ;Xg 6 6 ( 2X X&.$ W.5Xn.;X;XB.&.& v.n.V * 6 &.2XrX&.. fX;X;X;X;Xb.x.x.x.;Xg 6 6 &.2X X&.$ W.5Xn.;X;X;X9X&X        ",
"        $ o g | 5X].v Z.5Xb.J g g g 6 $ V V $ $ V | 5XW.v Z.2Xb.J g g g g g g g & . V &.5X].v Z.7Xv.S S g g W 2X&X      ",
"        $ g J J @.3., zXz.J $ g 6 . * S $ . $ V J v q.3., &Xz.J & 6 6 $ & v o o o g S S &.t., &Xz.J & 6 6 . & W rX      ",
"        =.J.v $ g q.;.&Xz.& m t.3.o.m S . m m t.v o g q.;.&Xv.& m t.3.o.m S % =.=.J.v . g x.;.&Xz.* m t.w.m b $ x.      ",
"      zXOX X#.z ( w.&XaX| v /..XXXiXU.b $ W.iXfXo.v ( w.&X X| v /.aXaXiX/.v o W. X.X#.y m w.&X.X| v /.iXOXiXW.b         ",
"        &.g.eXkXD.b aXx.o OXn.x.g.&.n.]., & | x./.zXU.b fXx.. OX;Xx.g.x.w.]., & | g.eXkXD.b .Xx.o .X;Xx.x.&.n.OX        ",
"      x.& o E eX&XaXx.x.o OX;Xg . o g b.&Xx.& o _ eXzXfXx.x.o .X;Xg . o 6 n.&Xx.& . _ eX&XaXx.b.$ .Xn.g o . 6 n.zX      ",
"        o o $ S 5X&XOX. &Xb., o >.&XW.q &Xo o o $ S 7XzXOX. #Xn.6 o >.&X]., &Xo $ . $ S 5X&XXXo #Xb., $ 4.&XW., &X      ",
"        .Xg S S v 5X X$ &Xb.6 9./.n.5XW.> o W.q S S S 7X X$ zXb., 9./.n.2XW.q . W.q E S S 5XXX% #Xb., 9./.x.9X.X        ",
"      &X5XU.=.& g ;X Xo &Xn., Z.9.S ;XOXo W.5X/.#.& g ;XXXo &Xn.6 Z.9.J n.OX$ W.=XU.=.* g ;XXXo zXn., S.9.J ;X&X        ",
"      &Xb.fX=.o v ;XOX. 2Xv 9.R.( $ E t.o &Xn.dXo.. g ;XXXo 2Xv 9.U.( o ( t.o #Xb.fXm $ g ;XXXo 5XS 9./.( & ( ;X        ",
"      eXE J.9.v g ;XXX$ S $ W.2XS . 6 x.o eXE n.9.y g ;XOXo S & W.5XS $ 6 g.o eXE J.J.y g ;X X$ S $ /.5Xv . 6 x.        ",
"      x.$ | uX>.v 2X/.. g $ W.2XS & g S o E & &.].>.b 5X/.. g $ /.2XS & g S o E $ &.rX>.v 5X/.o V $ W.5XS $ V x.        ",
"        5 _ R.#.m /.E . x.& R.e.V g E 6 % o , _ R.#.m eX_ $ x.& J.t.g 6 W 6 o o , W R.#.m eXW $ x.& R.y.g g &.          ",
"        v.5 S v V | $ q x.$ W 6 $ & 6 | o o x., P v g | . , x.& _ 6 $ , g | o % x., W S g | . , x.$ W 6 $ , , x.        ",
"        z.5 . . V | , zXx.& o $ S 2XW.. o o x., . . g | , &Xx.& . $ S 5XW.. . o g.6 . . g | , &Xx.& . $ S 2X&X          ",
"        &XzX&X>.o v OXx.$ . | g $ g ;XOXo o .X&XzX>.$ y $Xx.o o | g $ g ;XXXo o OX&X&X>.. y $Xx.. . | g $ g ;X&X        ",
"      &Xn.n.V.R.4.6 q.& o W.OX$XOX9.& , $ OX;Xn.b.U.9., x.& . W.OXOXOXS.& , . OXn.n.b.eX3.6 x.& $ W.OXOXOXOXD.q         ",
"      ;XV 6 6 &.J.U.&.$ /.5X=Xn.;X&.S $ &.n.g 6 6 @.J./.&.. W.5X;Xn.;Xl.E $ | ;Xg 6 * ( J.U.g.$ W.2X;Xn.;X;X;XW.        ",
"          $ a | eXW.g Z.5Xv.J V v g 6 $ g g & o V | 5XW.v Z.5Xb.S V V V 6 $ v g $ $ g &.5X].S S.5Xb.J g V g ( ;X        ",
"          J J S &.t., &Xl.E & 6 6 . & S . . o g J J &.t., &Xx.J & 6 6 . $ v o o . g J S #.t., #Xx.J & g * $ & S         ",
"          eXv . g &.;.&Xx.& m t.3.( m S o =.m J.v $ g &.;.&Xx.& m t.3...b E o =.o.J.b . g b.;.&Xx.& m t.3.=.v o         ",
"        fXdXo.v ( w.&XOX| v /..X.XdXU.y o /.aX.Xo.v ( w.&XOX| v /..XaXaXU.v o /.].iX#.b b w.&XaX| v /..XaXaXW.b         ",
"        x.g./.zXW.b .Xx.. .X;Xx.x.g.n..Xq & | g./.zXD.b .Xl.. .X;Xx.g.g.n..X, & | g.eXkXD.b .Xx.o OXn.x.g.g.b.OX        ",
"          $ _ rXzXiXv.x.o .X;Xg o o 6 b.&Xx.& o _ eXzXdXv.l.o OX;Xg o o 6 n.zXb.& $ _ eXzXaXx.x.o .X;Xg $ $ 6 n.&X      ",
"          $ $ W 2X&X].& OX;Xa $ ;.OXS.g $X& o o $ W 9X&X].* OXn.a & ;.OXZ.z &X& . $ $ W 2X&X X& OX;Xa & =.OX/.n.&X      ",
"        &Xq V S ( /.OX. &Xb.6 ;.U.n.L.W.y . Z.q V S W 9XOX. zXn., ;.U.;XJ.W.y o Z.q V S W eXOX. #Xb., ;.U.n.5XfX;X      ",
"        2XD.( & g ;XXXo &Xb., S.t.E ;XOX$ Z.=XU.@.& g ;XXX$ zXn., S.t.W ;XOXo Z.;XD.( & g ;X.X$ #Xb., S.J.E ;XkXx.      ",
"        x.OXo.o g ;XXXo $X( ;.L.o.& @.J.$ #Xb..Xo.. V ;XXX. rXW ;.J.@.& ( R.o &Xb.OX=.o g ;X.Xo eXE =.L.o.* | eXx.      ",
"        E 2X9.e g ;XXX. ]., /.5XS . 6 x.. ].| R.9.q g ;XOXo E $ W.2XS $ 6 &.. rX| U.9.e g ;XOX. W $ W.2XS . 6 x.W       ",
"        . &.].>.g ;XXX$ | $ W.2XS & V _ . | $ | ].3.v 2X/.o , & W.2XS $ g W . | $ | ].3.v 2X/.$ 6 $ W.2XS & V E .       ",
"          g./.#.J ;X X. & & W.2Xv 6 | & & $ & _ eX#.m ].| o x.& G.;XV 6 | & o o & _ eX,.m ].| o x.& D.J.S 6 | &         ",
"          % o v 5XfX&.. x.x.OXo.o o 6 x.z.. g.6 _ S V  .. $ x.& &.g $ . g &.o o g.6 E S V | o o x.& | g . . 6 x.        ",
"        x.6 o o g &.q &Xx.& o o J 5XW.o o o g.6 . $ V | , zXx.& . . S 5XW.$ . o g., . $ V  .6 &Xx.& o o S 5X&X          ",
"        $XOXXX#.. m W.x.& . | 6 $ v 5XW.o .  XOXOX#.$ m  Xn.& . | 6 $ S 2XW.$ $  XOXOX;.$ m  Xx.& o | g $ S 5X$X        ",
"      &X;Xn.;XR.3.q b.6 . Z. XW./.9.6 q o W.;X;Xn.5X3., n.6 o Z. XW.W.9.6 q $ W.5Xn.n.U.3., t.6 o Z.iX].W.]./.y         ",
"      5Xv V S &.J.9.&.$ Z.R.5X5X5Xt.S $ W eXv g g ,.U.9.g.. Z.R.2X5X5Xt.v $ W ;XJ g g @.R.9.x.. Z.2X2X5X5X5X/.Z.        ",
"          $ 6 | 2X].E >.eXl.E J S S V $ S S $ $ 6 | 5X[.E >.eXx._ S S S g $ S v & o 6 | 2X].W >.eXv._ S S S | eX        ",
"          J S E 3.J., &Xl.| * 6 6 . & 6 $ . . g S E w.t., &Xx.| 6 6 * . & g . % o g S W w.J., &Xz._ & 6 6 . $ ( rX      ",
"          ;Xv $ g g.o.&Xx.& a w.#.v b E . v v w.v $ g q...#Xx.& q w.@.v b _ o y y e.v $ g q.o.&Xx.$ e q.&.v q & b.      ",
"        OXkX,., v t.&XOX&.g W.fXfXkX]., $ .X$XfXo., v n.#XfXg.q D.OXkXkX]., o XX$XfXo., v n.#XOXg.q D.$X$XOXW.q         ",
"        x.x.rX#XZ.b kXv.. .X;Xl.b.x.;XOXo . x.x.rX#XS.v kXx.. .X;Xx.x.x.;XOXo o g.l.rX&XZ.v OXl.o OX;Xl.x.x.2XzX        ",
"          . E eX&XiXz.z.o OX;Xg o o 6 n.&Xx.& o ( eXzX.Xx.x.$ OX;XV $ . 6 n.&Xx.& $ _ eX$X Xx.l.o OX;Xg . $ 6 n.&X      ",
"          $ $ W 2X&X].& OX;Xa $ ;.OXZ.q &X& o o $ E 5X#X].& OXn.a $ #.OXS.g &X& $ o $ E 2X&X[.* OXn.a & ;.OX/.n.&X      ",
"        &Xe V S W eX.X$ #Xb., ;.U.;XJ.W.y o S.g S S E eX.X$ #Xb.6 ;.U.n.J.W.y o Z.q S S E eX.X$ &Xb.6 ;.U.n.2XfX;X      ",
"        2XD.@.* g ;XXX. &Xn., D.9.W ;XOX$ Z.J.D.m 6 g ;XXX. $Xb., S.9.W n.OXo Z.=XD.@.* g ;XXX. &Xn., S.Z.E ;XkXx.      ",
"        x.fXo.. V ;XXX. eXW ;.J.@.* ( J.. &Xb.fX=.o g ;XXX$ eXE ;.U.@.* | J.o &Xb.aX..o g ;XOXo eXW ;.L.( * E 3.x.      ",
"        E 5X9.q v ;X.Xo _ $ W.2XS . 6 g.o rX| 5X9.e g ;XXX$ W $ W.5XS $ & W o  X| U.9.y g ;XOXo W $ W.5XE o o & x.      ",
"        o g.].>.6 w./.. 6 $ W.2XS $ g W o | $ J /.>.v J.Z.. . $ W.J.V     o . | $ J /.>.g w..Xo . $ W.t.g o o           ",
"          &.R.#.$ 6 &.$ g.& Z.t.S g | $ o & o o 4.;.m W.. $   $ S.m         $ . $ . 9.;.. y W.$   $ S.m o $             ",
"          $ o           $   $ $     .         o $     o         $                   o       .       $                   "
};
