/* XPM */
static char *_aab33b582da4d15a1dff7266930d439ghp1F0VaNgwx0j27[] = {
/* columns rows colors chars-per-pixel */
"60 54 181 2 ",
"   c None",
".  c black",
"X  c #080808",
"o  c #0F1F13",
"O  c #101010",
"+  c #170604",
"@  c #290B07",
"#  c #2A1814",
"$  c #371A11",
"%  c #38130A",
"&  c #14291E",
"*  c #272717",
"=  c #3A221C",
"-  c #392416",
";  c #21311F",
":  c #3B3415",
">  c #19302C",
",  c #1D3B2A",
"<  c #1D3325",
"1  c #1D3634",
"2  c #1F2926",
"3  c #202020",
"4  c #252D2B",
"5  c #372623",
"6  c #26382A",
"7  c #303826",
"8  c #213935",
"9  c gray19",
"0  c #333D3A",
"q  c #3F3F3F",
"w  c #46120B",
"e  c #4A1A0F",
"r  c #5D190E",
"t  c #52150D",
"y  c #461E13",
"u  c #551D11",
"i  c #691B10",
"p  c #741E12",
"a  c #681B0F",
"s  c #482217",
"d  c #512613",
"f  c #572419",
"g  c #473617",
"h  c #62251B",
"j  c #662519",
"k  c #7F2113",
"l  c #5A2F28",
"z  c #782C20",
"x  c #683832",
"c  c #28461A",
"v  c #244428",
"b  c #365A27",
"n  c #224532",
"m  c #254C32",
"M  c #24443E",
"N  c #274D3D",
"B  c #35433B",
"V  c #3A453F",
"C  c #364939",
"Z  c #285436",
"A  c #29543C",
"S  c #2C5B3C",
"D  c #3B553B",
"F  c #3E6B27",
"G  c #3D6B2F",
"H  c #2E603A",
"J  c #3B6838",
"K  c #3E743B",
"L  c #425C38",
"P  c #43783A",
"I  c #274A43",
"U  c #2A4E48",
"Y  c #274A43",
"T  c #3F4C49",
"R  c #394A44",
"E  c #2B5344",
"W  c #2E5D44",
"Q  c #2E574D",
"!  c #305646",
"~  c #395642",
"^  c #2F5753",
"/  c #305B52",
"(  c #2E6140",
")  c #33634B",
"_  c #39674F",
"`  c #3B6C4E",
"'  c #346646",
"]  c #3B7543",
"[  c #3D7941",
"{  c #37754D",
"}  c #3D744E",
"|  c #3B7D4F",
" . c #367044",
".. c #346352",
"X. c #366B51",
"o. c #386F50",
"O. c #377150",
"+. c #387450",
"@. c #3A7950",
"#. c #404040",
"$. c #484B48",
"%. c #4A534B",
"&. c #505D4C",
"*. c #4D5A54",
"=. c #505050",
"-. c #5F5F5F",
";. c #595955",
":. c #684B46",
">. c #675653",
",. c #52604B",
"<. c #42764C",
"1. c #457C4B",
"2. c #586558",
"3. c #626F5B",
"4. c #606060",
"5. c #656C69",
"6. c #6F6F6F",
"7. c #6C6362",
"8. c #776663",
"9. c #6C7567",
"0. c #717373",
"q. c gray50",
"w. c #747978",
"e. c #802214",
"r. c #8C2415",
"t. c #972816",
"y. c #A22B18",
"u. c #AE2E1A",
"i. c #BA311C",
"p. c #BE3E2A",
"a. c #C34B38",
"s. c #C75847",
"d. c #CB6455",
"f. c #CF7162",
"g. c #D47E71",
"h. c #4A802F",
"j. c #48833C",
"k. c #508E3A",
"l. c #52923D",
"z. c #55983E",
"x. c #63AB3F",
"c. c #3D804E",
"v. c #4D8645",
"b. c #4D8E46",
"n. c #42834C",
"m. c #498449",
"M. c #45884B",
"N. c #4A8D49",
"B. c #418046",
"V. c #508B47",
"C. c #4F9447",
"Z. c #4D9148",
"A. c #539445",
"S. c #569A44",
"D. c #599F43",
"F. c #5CA242",
"G. c #62AA40",
"H. c #C7877D",
"J. c #818181",
"K. c gray56",
"L. c #858A8A",
"P. c #978683",
"I. c #9F9F9F",
"U. c #969191",
"Y. c #AE8C86",
"T. c #BA8F88",
"R. c #B39995",
"E. c #AFAFAF",
"W. c #A7A2A1",
"Q. c gray75",
"!. c #B7A6A3",
"~. c #C59289",
"^. c #D1958C",
"/. c #E1A49B",
"(. c #EABEB8",
"). c gray81",
"_. c #DFDFDF",
"`. c #D7C5C3",
"'. c #EFEFEF",
"]. c white",
"[. c white",
/* pixels */
"                                                                                                                        ",
"        G.x.x.      F.c.c.@.                G.G.G.      F.c.    | |             G.G.G.      F.c.^                       ",
"      G.M.c.n.C.G.  <./ / S.G.G.G.G.      G.M.n.n.A.S.c.@./ @.F.G.F.G.S.|     G.M.c.n.A.G.  1./ ^ D.G.G.G.G.G.          ",
"      M.......} C.S.@.^ S.N.M.M.M.n.+./ @.M.../ ..+.Z.C.@./ F.Z.M.M.M.n.@.c.@.N.......+.Z.S.@.^ A.Z.M.M.M.M.Z.G.        ",
"        / ^ ..} N.S.X.V.Z.@.X........./ ..../ ^ ..+.N.S.X.V.N.c................./ ^ ..} Z.A._ V.N.c.X.......o.N.G.      ",
"        ^ ..X.X.<.M...x.@.X./ ..../ / ..^ / / _ X.X.<.n...G.@.X./ ....^ / ../ ^ / ..X...| M.) x.@.o.^ / ..^ / O.C.      ",
"        1.M.X.^ ..| 1.G.c./ } m.n.<.<.X.^ <.<.m.` / ) 1.1.G.c./ <.m.1.<.} X.^ <.<.M.` ^ ..| 1.x.c./ <.m.m.<.o./ |       ",
"      x.F.D.1.` } m.x.D.+.X.A.D.D.D.V.o.^ A.D.D.<.` } K P h.+.X.z.z.z.P b W / A.D.D.1.` } m.x.D.+.X.C.D.D.D.V.<.        ",
"        } @.A.G.A.` D.| / F.M.@.@.@.m.S.../ { | A.F.h.X . . X F.n.@.n X . . I ^ +.+.A.F.A.` D.| / F.M.@.} @.n.F.        ",
"      | / ^ O.C.G.D.| | / F.M...^ ^ / n.x.@./ ^ +.A.L . Z o X g d y $ # & . c @./ / O.A.x.F.| | ^ D.M...^ ^ ..n.G.      ",
"        ^ ^ ^ X.N.x.F.^ G.n.../ m.x.A._ x.^ ^ ^ / X.& + r y.i.i.i.i.i.i.u.p % 1 / ^ ^ X.N.x.D.^ G.n...^ m.x.A...x.      ",
"        D.X.X.X.X.N.D.^ G.n./ v.Z.n.N.A...^ A._ ) 7 j i.r.h y.i.i.i.i.i.i.i.i.y.$ E X.X.X.N.F.^ G.n...m.Z.n.N.F.        ",
"      G.N.A.<./ ..M.F.^ G.n.Q j.m.X.M.D.^ A.N.P y u.i.p I.'.:.i.i.y.:.8.t.i.i.i.i.r 8 ....M.F.^ G.n...V.m.X.M.G.        ",
"      x.c.F.<.^ X.M.D.^ N.m w.6.m / o.M./ x.] j i.i.i.>._.=.# i.i.8.'.E.f i.i.i.i.i.k 4 ..M.F.^ N.X.m.C.<./ O.N.        ",
"      C.O.N.m.` ..M.F.^ ) 5.].].=./ / @.Q j.f i.i.i.i.q.6.O % i.r.Q.2.4.w i.i.i.i.i.i.p n M.D.^ X./ A.N...^ ..c.        ",
"      | / +.S.m.X.N.A.^ E E.].].0./ _ X.Q * i.i.i.i.i.;.I.. k i.r.E.=.. p i.i.i.i.i.i.i.u [ A.^ ../ A.N.X./ ..@.        ",
"        ..X.Z.1.} C.W T %.I._.q.$.U X.Q > y.i.i.i.i.i.t.x r.i.i.u.>.q.w i.i.i.i.i.i.i.i.u.* X.^ | / N.n.....}           ",
"        | ..X...X.' L.].K._._.].Q.4 -.K.w i.i.i.i.i.i.i.i.i.i.i.i.u.t.u.t.i.i.i.i.i.i.i.i.p M ) | / X.../ ....@.        ",
"        | / ^ ^ I C 6.-.E.]._._.V.[.[.E.r.i.i.i.i.i.i.i.i.i.i.i.i.i.u.@ % u.i.i.i.i.i.i.i.i.6 x.| / / ^ X.N.G.          ",
"        G.x.x.P w.).q.4.]._.I.Q.).[.[.8.i.i.i.i.i.i.y.y.i.i.i.i.i.i.u.t i.i.i.i.i.i.i.i.i.i.u c.^ / O.../ ..M.G.        ",
"      G.M.c.n.K E.q.].L '.'.q.].W.0.I.l i.i.i.i.i.i.i.p r r e.r.p h >.k i.i.i.i.i.i.i.i.i.i.k I ^ A.G.F.F.F.A.)         ",
"      M...../ X.V 6.[.).'.[.).#.;.^ W i i.i.i.i.i.i.i.i.i.7.).Q._.[.'.i i.i.i.i.i.i.i.i.i.i.y.6 A.N.M.M.M.M.N.A.        ",
"          ^ ..{ 1.b ).[.[.[.K.E / ..^ p i.i.p.g.i.i.i.i.p.k ).[.[.[.8.y.i.i.i.i.i.i.i.i.i.i.i.; N.| X.......X.N.        ",
"          X.X.X.1.1.8 =.5.*.M ../ ^ U p i.i.a.J.P.g.i.i.i.i.p 8.W.>.t.i.i.i.i.i.i.i.i.i.i.i.i.b @.X./ ..../ / X.        ",
"          Z.X.^ ..1.1.G.@./ } m.m.<.( k i.i.a.J.. =.f.f.a.u.i.i.y.i.i.i.i.i.i.i.i.i.i.i.i.i.i.c S E } m.m.<.` ^         ",
"        F.F.1.` } n.G.F.} X.Z.F.D.F.b.a i.i.i./.O 9 q.9 R.s.H.Y.H.i.i.i.i.i.i.i.i.i.i.i.i.i.t.6.).5.v.D.D.D.A.}         ",
"        | @.A.F.A.} F.@.^ F.M.@.{ @.n.d i.i.i.d.q O q . . 4.O . 4.d.i.i.i.i.i.i.i.i.i.i.i.i.k Q.]._.m | | } n.F.        ",
"          ^ O.A.G.F.@.@.^ F.M...^ ^ ) 4 i.i.i.d.q P./.q . . 3 . . T.i.i.i.i.i.i.i.i.i.i.i.i.f ].].Q.Z ..^ ^ ..c.x.      ",
"          / / X.C.G.D./ D.M.../ 1.F.V.M r.u.i.^.3 ~.a.-.. 4.(.#.. Y.i.i.i.i.i.i.i.i.i.i.i.i.8.]._.B ../ 1.F.A.c.x.      ",
"        G.X...X.X.Z.F.^ G.n...1.Z.M.N.A.$ i.a.4.. ~.a.-.. J.a.>.. Y.i.i.i.i.i.i.i.i.i.i.i.k _.].2.n...1.b.n.Z.F.M.      ",
"        N.C.<./ ..M.D.^ x.n...V.v.O.M.D.1 r.a.-.. q.d.-.. q.a.4.. Y.i.i.i.i.i.i.i.i.i.i.i.8.[.[.K.| ..V.N.O.M.F.|       ",
"        @.F.<./ ..N.F.^ G.} 1.N.} / } b.^ : u.H.#.#.g.4.. 0.s.4.. W.p.i.i.i.i.i.i.i.i.i.j K.[.[.Q.N 1.v.} / | Z.|       ",
"        X.Z.m.` ..M.F.^ A./ A.Z.X.^ ..@.^ j.s i.g.!.g.-.. #.H.3.. 3 !.a.i.i.i.i.i.i.i.p -.Q.].].I.I A.N.X.^ ..@.X.      ",
"        / +.S.m...M.F.^ +./ A.N.X.^ ..X.^ O.Y h i.a.a.`.#.#.g.>.. . -.a.i.i.i.i.i.i.e.q.'.#.Q.).0 / A.b.X.^ X.X.^       ",
"          +.A.1.X.M.S.^ / / S.N.X...{ / / ^ / ( y y.i.i.f.^.d.R.U.q.E.a.i.i.i.i.i.a -.].].E.n 1 | / C.M.X...O.^         ",
"          ^ ^ X.N.F.@.^ @.@.F.<.^ ^ ..| | ^ @...I 5 p i.i.i.i.i.i.i.i.i.i.i.i.r.- U 0 ).Q.R ^ ^ @./ O...^ ^ ..|         ",
"        @...^ ^ ..O.) x.c./ / ^ X.N.A.^ ^ ^ A > I.[.I.5 p y.i.i.i.i.i.i.u.k $ 1 @...U 8 N { ..x.@./ / ^ X.N.x.          ",
"        G.F.F.1./ <.S.c./ / X...U , 2.0.q.5.Q.-.[.[.[.3.k.n 2 = s e x 8.=.G ^ ^ S.F.F.1.^ } S.n./ ^ O.../ X.N.G.        ",
"      G.N.M.M.b.1._ n...^ b.A.C K.'.].].].].].q.I.[._.$.J ..^ v.A.&.].].).< Q A.N.M.M.b.m...n./ ^ V.D.S.A.D.A.X.        ",
"      N.X.....| V.M.| ^ v.N.D _.].].].].].].].].I.q.q.[., ^ v.N.%.6._.].).K.R K X...X.<.Z.m.+./ V.N.N.N.N.v.Z.b.        ",
"          ^ ..+.N.S.o.1.A.H W.].].].].].].].].].].].]._.n m.Z. .I.'.q.6.%._.[.E.5.1 ..O.N.S.O.m.C.c.O.X.X.X.} A.        ",
"          X.X.X.n.v...G.| n _.].].].].].].].].].].].].W.! x.| S Q.].].].].[.[.[.]._.6 ) 1.v...G.| O./ ../ ^ / } S.      ",
"          N.X./ ..@.<.G.@.M Q.].].].].].].].].].].].].$.<.x.@.N Q.].].].].].[.[.].].'.5.Q } <.G.| / X.1.<.} X./ c.      ",
"        F.F.<._ X.M.G.G.@.X.C _.].].].].].].].].].].J.] x.G.+...K.].].].].].[.[.].].].].&.M.G.G.+...A.F.F.F.A._         ",
"        @.@.S.G.V.` G.| / F.M.~ I._.].].].].].].Q.%.J ` F.c.^ F.D '.[.[.[.[.[.[.].].].].K.' G.| ^ F.M.| @.@.M.G.        ",
"          ^ O.C.x.D.@.| ^ F.M...U 1 R 2.9.5.T 8 A C.x.F.c.@.^ F.1.B _.[.[.[.[.[.].].].].Q.P | | ^ F.M.../ / ..n.G.      ",
"          / / X.Z.x.S./ D.M.../ 1.F.V._ x./ / ^ / X.Z.x.S./ F.M._ E C I.[.[.].].].].].].9.x.S.^ F.M.../ 1.F.C.n.G.      ",
"        G._ X.X.` Z.F.^ x.n...1.b.M.N.A.` ^ v.X...X.} Z.F.^ G.n./ 1.Z.S B I._.].].].'.0.Z Z.F.^ G.n...1.Z.M.N.F.M.      ",
"        N.A.} / ..M.F.^ G.c...V.v.O.M.F.^ V.N.V.<./ ..M.F.^ G.n...V.N.X.M.l.> b ~ L < ^ ..M.F.^ x.n./ V.v.X.M.F.c.      ",
"        @.F.<./ X.M.F.^ C.O.1.N.<./ +.N.^ G.c.F.<.^ X.M.D.^ C.o.1.b.<./ } N.^ G.n.F.<.^ ..M.D.^ A.X.1.N.<...O.m.@.      ",
"        O.N.m.X...M.F.^ X./ A.N.X.^ ..@./ S.+.Z.m._ ..M.F.^ o.^ A.N.X.^ / X.^ S.+.V.m._ X.M.D.^ X./ A.N.X.^ / / @.      ",
"        ^ O.S.m...1.A.^ ../ A.N.X./ ..X.^ +./ X.A.m.X.N.V.^ ^ ^ A.N...    ^ ^ +./ X.A.m...n.F.^ / ^ A.N...^ ^           ",
"          +.A.1.^ ..+.^ @./ V.M.X...O.^ ^ ^ ^ ^ m.1.<.A.^ ^   ^ V.<.        / ^ ^ ^ V.1.^ _ A.^   ^ v.<.^ ^             ",
"          ^ /           ^   ^ ^     ^         ^ ^     ^         ^                   ^       ^       /                   "
};
